solid OpenSCAD_Model
  facet normal 0 0 -1
    outer loop
      vertex -96.8366 -20.5833 0
      vertex -97.8148 -20.7912 0
      vertex -99 0 0
    endloop
  endfacet
  facet normal 0 -0 -1
    outer loop
      vertex -96.8366 20.5833 0
      vertex -97.8148 20.7912 0
      vertex -91.3545 40.6737 0
    endloop
  endfacet
  facet normal 0 -0 -1
    outer loop
      vertex -90.441 40.2669 0
      vertex -91.3545 40.6737 0
      vertex -80.9017 58.7785 0
    endloop
  endfacet
  facet normal 0 -0 -1
    outer loop
      vertex -80.0927 58.1907 0
      vertex -80.9017 58.7785 0
      vertex -66.9131 74.3145 0
    endloop
  endfacet
  facet normal 0 -0 -1
    outer loop
      vertex -66.2439 73.5713 0
      vertex -66.9131 74.3145 0
      vertex -50 86.6025 0
    endloop
  endfacet
  facet normal 0 -0 -1
    outer loop
      vertex -49.5 85.7365 0
      vertex -50 86.6025 0
      vertex -30.9017 95.1057 0
    endloop
  endfacet
  facet normal 0 -0 -1
    outer loop
      vertex -30.5927 94.1546 0
      vertex -30.9017 95.1057 0
      vertex -10.4528 99.4522 0
    endloop
  endfacet
  facet normal 0 -0 -1
    outer loop
      vertex -10.3483 98.4577 0
      vertex -10.4528 99.4522 0
      vertex 10.4528 99.4522 0
    endloop
  endfacet
  facet normal -0 0 -1
    outer loop
      vertex 10.3483 98.4577 0
      vertex 10.4528 99.4522 0
      vertex 30.9017 95.1057 0
    endloop
  endfacet
  facet normal -0 0 -1
    outer loop
      vertex 30.5927 94.1546 0
      vertex 30.9017 95.1057 0
      vertex 50 86.6025 0
    endloop
  endfacet
  facet normal -0 0 -1
    outer loop
      vertex 49.5 85.7365 0
      vertex 50 86.6025 0
      vertex 66.9131 74.3145 0
    endloop
  endfacet
  facet normal -0 0 -1
    outer loop
      vertex 66.2439 73.5713 0
      vertex 66.9131 74.3145 0
      vertex 80.9017 58.7785 0
    endloop
  endfacet
  facet normal -0 0 -1
    outer loop
      vertex 80.0927 58.1907 0
      vertex 80.9017 58.7785 0
      vertex 91.3545 40.6737 0
    endloop
  endfacet
  facet normal -0 0 -1
    outer loop
      vertex 90.441 40.2669 0
      vertex 91.3545 40.6737 0
      vertex 97.8148 20.7912 0
    endloop
  endfacet
  facet normal -0 -0 -1
    outer loop
      vertex 99 0 0
      vertex 97.8148 20.7912 0
      vertex 100 0 0
    endloop
  endfacet
  facet normal -0 0 -1
    outer loop
      vertex 96.8366 -20.5833 0
      vertex 100 0 0
      vertex 97.8148 -20.7912 0
    endloop
  endfacet
  facet normal -0 0 -1
    outer loop
      vertex 90.441 -40.2669 0
      vertex 97.8148 -20.7912 0
      vertex 91.3545 -40.6737 0
    endloop
  endfacet
  facet normal -0 0 -1
    outer loop
      vertex 80.0927 -58.1907 0
      vertex 91.3545 -40.6737 0
      vertex 80.9017 -58.7785 0
    endloop
  endfacet
  facet normal -0 0 -1
    outer loop
      vertex 66.2439 -73.5713 0
      vertex 80.9017 -58.7785 0
      vertex 66.9131 -74.3145 0
    endloop
  endfacet
  facet normal -0 0 -1
    outer loop
      vertex 49.5 -85.7365 0
      vertex 66.9131 -74.3145 0
      vertex 50 -86.6025 0
    endloop
  endfacet
  facet normal -0 0 -1
    outer loop
      vertex 30.5927 -94.1546 0
      vertex 50 -86.6025 0
      vertex 30.9017 -95.1057 0
    endloop
  endfacet
  facet normal -0 0 -1
    outer loop
      vertex 10.3483 -98.4577 0
      vertex 30.9017 -95.1057 0
      vertex 10.4528 -99.4522 0
    endloop
  endfacet
  facet normal 0 0 -1
    outer loop
      vertex -10.3483 -98.4577 0
      vertex 10.4528 -99.4522 0
      vertex -10.4528 -99.4522 0
    endloop
  endfacet
  facet normal 0 0 -1
    outer loop
      vertex -30.5927 -94.1546 0
      vertex -10.4528 -99.4522 0
      vertex -30.9017 -95.1057 0
    endloop
  endfacet
  facet normal 0 0 -1
    outer loop
      vertex -49.5 -85.7365 0
      vertex -30.9017 -95.1057 0
      vertex -50 -86.6025 0
    endloop
  endfacet
  facet normal 0 0 -1
    outer loop
      vertex -66.2439 -73.5713 0
      vertex -50 -86.6025 0
      vertex -66.9131 -74.3145 0
    endloop
  endfacet
  facet normal 0 0 -1
    outer loop
      vertex -80.0927 -58.1907 0
      vertex -66.9131 -74.3145 0
      vertex -80.9017 -58.7785 0
    endloop
  endfacet
  facet normal 0 0 -1
    outer loop
      vertex -90.441 -40.2669 0
      vertex -80.9017 -58.7785 0
      vertex -91.3545 -40.6737 0
    endloop
  endfacet
  facet normal -0 0 -1
    outer loop
      vertex -100 0 0
      vertex -97.8148 20.7912 0
      vertex -99 0 0
    endloop
  endfacet
  facet normal 0 0 -1
    outer loop
      vertex -100 0 0
      vertex -99 0 0
      vertex -97.8148 -20.7912 0
    endloop
  endfacet
  facet normal 0 0 -1
    outer loop
      vertex -90.441 -40.2669 0
      vertex -97.8148 -20.7912 0
      vertex -96.8366 -20.5833 0
    endloop
  endfacet
  facet normal 0 0 -1
    outer loop
      vertex -80.0927 -58.1907 0
      vertex -80.9017 -58.7785 0
      vertex -90.441 -40.2669 0
    endloop
  endfacet
  facet normal 0 0 -1
    outer loop
      vertex -97.8148 -20.7912 0
      vertex -90.441 -40.2669 0
      vertex -91.3545 -40.6737 0
    endloop
  endfacet
  facet normal -0 0 -1
    outer loop
      vertex 96.8366 20.5833 0
      vertex 97.8148 20.7912 0
      vertex 99 0 0
    endloop
  endfacet
  facet normal 0 0 -1
    outer loop
      vertex 80.0927 58.1907 0
      vertex 91.3545 40.6737 0
      vertex 90.441 40.2669 0
    endloop
  endfacet
  facet normal 0 0 -1
    outer loop
      vertex 90.441 40.2669 0
      vertex 97.8148 20.7912 0
      vertex 96.8366 20.5833 0
    endloop
  endfacet
  facet normal 0 0 -1
    outer loop
      vertex 99 0 0
      vertex 100 0 0
      vertex 96.8366 -20.5833 0
    endloop
  endfacet
  facet normal 0 0 -1
    outer loop
      vertex 96.8366 -20.5833 0
      vertex 97.8148 -20.7912 0
      vertex 90.441 -40.2669 0
    endloop
  endfacet
  facet normal 0 0 -1
    outer loop
      vertex 90.441 -40.2669 0
      vertex 91.3545 -40.6737 0
      vertex 80.0927 -58.1907 0
    endloop
  endfacet
  facet normal 0 0 -1
    outer loop
      vertex 80.0927 -58.1907 0
      vertex 80.9017 -58.7785 0
      vertex 66.2439 -73.5713 0
    endloop
  endfacet
  facet normal 0 0 -1
    outer loop
      vertex 66.2439 -73.5713 0
      vertex 66.9131 -74.3145 0
      vertex 49.5 -85.7365 0
    endloop
  endfacet
  facet normal 0 0 -1
    outer loop
      vertex 49.5 -85.7365 0
      vertex 50 -86.6025 0
      vertex 30.5927 -94.1546 0
    endloop
  endfacet
  facet normal 0 0 -1
    outer loop
      vertex 30.5927 -94.1546 0
      vertex 30.9017 -95.1057 0
      vertex 10.3483 -98.4577 0
    endloop
  endfacet
  facet normal 0 0 -1
    outer loop
      vertex 10.3483 -98.4577 0
      vertex 10.4528 -99.4522 0
      vertex -10.3483 -98.4577 0
    endloop
  endfacet
  facet normal 0 0 -1
    outer loop
      vertex -10.3483 -98.4577 0
      vertex -10.4528 -99.4522 0
      vertex -30.5927 -94.1546 0
    endloop
  endfacet
  facet normal 0 0 -1
    outer loop
      vertex -30.5927 -94.1546 0
      vertex -30.9017 -95.1057 0
      vertex -49.5 -85.7365 0
    endloop
  endfacet
  facet normal 0 0 -1
    outer loop
      vertex -99 0 0
      vertex -97.8148 20.7912 0
      vertex -96.8366 20.5833 0
    endloop
  endfacet
  facet normal 0 0 -1
    outer loop
      vertex -96.8366 20.5833 0
      vertex -91.3545 40.6737 0
      vertex -90.441 40.2669 0
    endloop
  endfacet
  facet normal 0 0 -1
    outer loop
      vertex -90.441 40.2669 0
      vertex -80.9017 58.7785 0
      vertex -80.0927 58.1907 0
    endloop
  endfacet
  facet normal 0 0 -1
    outer loop
      vertex -80.0927 58.1907 0
      vertex -66.9131 74.3145 0
      vertex -66.2439 73.5713 0
    endloop
  endfacet
  facet normal 0 0 -1
    outer loop
      vertex -66.2439 73.5713 0
      vertex -50 86.6025 0
      vertex -49.5 85.7365 0
    endloop
  endfacet
  facet normal 0 0 -1
    outer loop
      vertex -49.5 85.7365 0
      vertex -30.9017 95.1057 0
      vertex -30.5927 94.1546 0
    endloop
  endfacet
  facet normal 0 0 -1
    outer loop
      vertex -30.5927 94.1546 0
      vertex -10.4528 99.4522 0
      vertex -10.3483 98.4577 0
    endloop
  endfacet
  facet normal -0 0 -1
    outer loop
      vertex -10.3483 98.4577 0
      vertex 10.4528 99.4522 0
      vertex 10.3483 98.4577 0
    endloop
  endfacet
  facet normal 0 0 -1
    outer loop
      vertex 10.3483 98.4577 0
      vertex 30.9017 95.1057 0
      vertex 30.5927 94.1546 0
    endloop
  endfacet
  facet normal 0 0 -1
    outer loop
      vertex 30.5927 94.1546 0
      vertex 50 86.6025 0
      vertex 49.5 85.7365 0
    endloop
  endfacet
  facet normal 0 0 -1
    outer loop
      vertex 49.5 85.7365 0
      vertex 66.9131 74.3145 0
      vertex 66.2439 73.5713 0
    endloop
  endfacet
  facet normal 0 0 -1
    outer loop
      vertex 66.2439 73.5713 0
      vertex 80.9017 58.7785 0
      vertex 80.0927 58.1907 0
    endloop
  endfacet
  facet normal 0 0 -1
    outer loop
      vertex -49.5 -85.7365 0
      vertex -50 -86.6025 0
      vertex -66.2439 -73.5713 0
    endloop
  endfacet
  facet normal 0 0 -1
    outer loop
      vertex -66.2439 -73.5713 0
      vertex -66.9131 -74.3145 0
      vertex -80.0927 -58.1907 0
    endloop
  endfacet
  facet normal -0.994522 0.104528 0
    outer loop
      vertex -100 0 0
      vertex -100 0 10
      vertex -97.8148 20.7912 0
    endloop
  endfacet
  facet normal -0.994522 0.104528 0
    outer loop
      vertex -97.8148 20.7912 0
      vertex -100 0 10
      vertex -97.8148 20.7912 10
    endloop
  endfacet
  facet normal -0.994522 -0.104528 -0
    outer loop
      vertex -100 0 0
      vertex -97.8148 -20.7912 0
      vertex -100 0 10
    endloop
  endfacet
  facet normal -0.994522 -0.104528 0
    outer loop
      vertex -100 0 10
      vertex -97.8148 -20.7912 0
      vertex -97.8148 -20.7912 10
    endloop
  endfacet
  facet normal -0.951057 -0.309017 -0
    outer loop
      vertex -97.8148 -20.7912 0
      vertex -91.3545 -40.6737 0
      vertex -97.8148 -20.7912 10
    endloop
  endfacet
  facet normal -0.951057 -0.309017 0
    outer loop
      vertex -97.8148 -20.7912 10
      vertex -91.3545 -40.6737 0
      vertex -91.3545 -40.6737 10
    endloop
  endfacet
  facet normal -0.866025 -0.5 -0
    outer loop
      vertex -91.3545 -40.6737 0
      vertex -80.9017 -58.7785 0
      vertex -91.3545 -40.6737 10
    endloop
  endfacet
  facet normal -0.866025 -0.5 0
    outer loop
      vertex -91.3545 -40.6737 10
      vertex -80.9017 -58.7785 0
      vertex -80.9017 -58.7785 10
    endloop
  endfacet
  facet normal -0.743145 -0.669131 -0
    outer loop
      vertex -80.9017 -58.7785 0
      vertex -66.9131 -74.3145 0
      vertex -80.9017 -58.7785 10
    endloop
  endfacet
  facet normal -0.743145 -0.669131 0
    outer loop
      vertex -80.9017 -58.7785 10
      vertex -66.9131 -74.3145 0
      vertex -66.9131 -74.3145 10
    endloop
  endfacet
  facet normal -0.587785 -0.809017 0
    outer loop
      vertex -66.9131 -74.3145 10
      vertex -66.9131 -74.3145 0
      vertex -50 -86.6025 0
    endloop
  endfacet
  facet normal -0.587785 -0.809017 0
    outer loop
      vertex -50 -86.6025 10
      vertex -66.9131 -74.3145 10
      vertex -50 -86.6025 0
    endloop
  endfacet
  facet normal -0.406737 -0.913545 0
    outer loop
      vertex -50 -86.6025 10
      vertex -50 -86.6025 0
      vertex -30.9017 -95.1057 0
    endloop
  endfacet
  facet normal -0.406737 -0.913545 0
    outer loop
      vertex -30.9017 -95.1057 10
      vertex -50 -86.6025 10
      vertex -30.9017 -95.1057 0
    endloop
  endfacet
  facet normal -0.207912 -0.978148 0
    outer loop
      vertex -30.9017 -95.1057 10
      vertex -30.9017 -95.1057 0
      vertex -10.4528 -99.4522 0
    endloop
  endfacet
  facet normal -0.207912 -0.978148 0
    outer loop
      vertex -10.4528 -99.4522 10
      vertex -30.9017 -95.1057 10
      vertex -10.4528 -99.4522 0
    endloop
  endfacet
  facet normal 0 -1 0
    outer loop
      vertex -10.4528 -99.4522 10
      vertex -10.4528 -99.4522 0
      vertex 10.4528 -99.4522 0
    endloop
  endfacet
  facet normal 0 -1 0
    outer loop
      vertex 10.4528 -99.4522 10
      vertex -10.4528 -99.4522 10
      vertex 10.4528 -99.4522 0
    endloop
  endfacet
  facet normal 0.207912 -0.978148 0
    outer loop
      vertex 10.4528 -99.4522 10
      vertex 10.4528 -99.4522 0
      vertex 30.9017 -95.1057 0
    endloop
  endfacet
  facet normal 0.207912 -0.978148 0
    outer loop
      vertex 30.9017 -95.1057 10
      vertex 10.4528 -99.4522 10
      vertex 30.9017 -95.1057 0
    endloop
  endfacet
  facet normal 0.406737 -0.913545 0
    outer loop
      vertex 30.9017 -95.1057 10
      vertex 30.9017 -95.1057 0
      vertex 50 -86.6025 0
    endloop
  endfacet
  facet normal 0.406737 -0.913545 0
    outer loop
      vertex 50 -86.6025 10
      vertex 30.9017 -95.1057 10
      vertex 50 -86.6025 0
    endloop
  endfacet
  facet normal 0.587785 -0.809017 0
    outer loop
      vertex 50 -86.6025 10
      vertex 50 -86.6025 0
      vertex 66.9131 -74.3145 0
    endloop
  endfacet
  facet normal 0.587785 -0.809017 0
    outer loop
      vertex 66.9131 -74.3145 10
      vertex 50 -86.6025 10
      vertex 66.9131 -74.3145 0
    endloop
  endfacet
  facet normal 0.743145 -0.669131 0
    outer loop
      vertex 66.9131 -74.3145 10
      vertex 66.9131 -74.3145 0
      vertex 80.9017 -58.7785 0
    endloop
  endfacet
  facet normal 0.743145 -0.669131 0
    outer loop
      vertex 80.9017 -58.7785 10
      vertex 66.9131 -74.3145 10
      vertex 80.9017 -58.7785 0
    endloop
  endfacet
  facet normal 0.866025 -0.5 0
    outer loop
      vertex 80.9017 -58.7785 10
      vertex 80.9017 -58.7785 0
      vertex 91.3545 -40.6737 0
    endloop
  endfacet
  facet normal 0.866025 -0.5 0
    outer loop
      vertex 91.3545 -40.6737 10
      vertex 80.9017 -58.7785 10
      vertex 91.3545 -40.6737 0
    endloop
  endfacet
  facet normal 0.951057 -0.309017 0
    outer loop
      vertex 91.3545 -40.6737 10
      vertex 91.3545 -40.6737 0
      vertex 97.8148 -20.7912 0
    endloop
  endfacet
  facet normal 0.951057 -0.309017 0
    outer loop
      vertex 97.8148 -20.7912 10
      vertex 91.3545 -40.6737 10
      vertex 97.8148 -20.7912 0
    endloop
  endfacet
  facet normal 0.994522 -0.104528 0
    outer loop
      vertex 97.8148 -20.7912 10
      vertex 97.8148 -20.7912 0
      vertex 100 0 0
    endloop
  endfacet
  facet normal 0.994522 -0.104528 0
    outer loop
      vertex 100 0 10
      vertex 97.8148 -20.7912 10
      vertex 100 0 0
    endloop
  endfacet
  facet normal 0.994522 0.104528 0
    outer loop
      vertex 100 0 0
      vertex 97.8148 20.7912 0
      vertex 97.8148 20.7912 10
    endloop
  endfacet
  facet normal 0.994522 0.104528 -0
    outer loop
      vertex 100 0 10
      vertex 100 0 0
      vertex 97.8148 20.7912 10
    endloop
  endfacet
  facet normal 0.951057 0.309017 0
    outer loop
      vertex 97.8148 20.7912 0
      vertex 91.3545 40.6737 0
      vertex 91.3545 40.6737 10
    endloop
  endfacet
  facet normal 0.951057 0.309017 -0
    outer loop
      vertex 97.8148 20.7912 10
      vertex 97.8148 20.7912 0
      vertex 91.3545 40.6737 10
    endloop
  endfacet
  facet normal 0.866025 0.5 0
    outer loop
      vertex 91.3545 40.6737 0
      vertex 80.9017 58.7785 0
      vertex 80.9017 58.7785 10
    endloop
  endfacet
  facet normal 0.866025 0.5 -0
    outer loop
      vertex 91.3545 40.6737 10
      vertex 91.3545 40.6737 0
      vertex 80.9017 58.7785 10
    endloop
  endfacet
  facet normal 0.743145 0.669131 0
    outer loop
      vertex 80.9017 58.7785 0
      vertex 66.9131 74.3145 0
      vertex 66.9131 74.3145 10
    endloop
  endfacet
  facet normal 0.743145 0.669131 -0
    outer loop
      vertex 80.9017 58.7785 10
      vertex 80.9017 58.7785 0
      vertex 66.9131 74.3145 10
    endloop
  endfacet
  facet normal 0.587785 0.809017 0
    outer loop
      vertex 50 86.6025 0
      vertex 50 86.6025 10
      vertex 66.9131 74.3145 0
    endloop
  endfacet
  facet normal 0.587785 0.809017 0
    outer loop
      vertex 66.9131 74.3145 0
      vertex 50 86.6025 10
      vertex 66.9131 74.3145 10
    endloop
  endfacet
  facet normal 0.406737 0.913545 0
    outer loop
      vertex 30.9017 95.1057 0
      vertex 30.9017 95.1057 10
      vertex 50 86.6025 0
    endloop
  endfacet
  facet normal 0.406737 0.913545 0
    outer loop
      vertex 50 86.6025 0
      vertex 30.9017 95.1057 10
      vertex 50 86.6025 10
    endloop
  endfacet
  facet normal 0.207912 0.978148 0
    outer loop
      vertex 10.4528 99.4522 0
      vertex 10.4528 99.4522 10
      vertex 30.9017 95.1057 0
    endloop
  endfacet
  facet normal 0.207912 0.978148 0
    outer loop
      vertex 30.9017 95.1057 0
      vertex 10.4528 99.4522 10
      vertex 30.9017 95.1057 10
    endloop
  endfacet
  facet normal 0 1 0
    outer loop
      vertex -10.4528 99.4522 0
      vertex -10.4528 99.4522 10
      vertex 10.4528 99.4522 0
    endloop
  endfacet
  facet normal 0 1 0
    outer loop
      vertex 10.4528 99.4522 0
      vertex -10.4528 99.4522 10
      vertex 10.4528 99.4522 10
    endloop
  endfacet
  facet normal -0.207912 0.978148 0
    outer loop
      vertex -30.9017 95.1057 0
      vertex -30.9017 95.1057 10
      vertex -10.4528 99.4522 0
    endloop
  endfacet
  facet normal -0.207912 0.978148 0
    outer loop
      vertex -10.4528 99.4522 0
      vertex -30.9017 95.1057 10
      vertex -10.4528 99.4522 10
    endloop
  endfacet
  facet normal -0.406737 0.913545 0
    outer loop
      vertex -50 86.6025 0
      vertex -50 86.6025 10
      vertex -30.9017 95.1057 0
    endloop
  endfacet
  facet normal -0.406737 0.913545 0
    outer loop
      vertex -30.9017 95.1057 0
      vertex -50 86.6025 10
      vertex -30.9017 95.1057 10
    endloop
  endfacet
  facet normal -0.587785 0.809017 0
    outer loop
      vertex -66.9131 74.3145 0
      vertex -66.9131 74.3145 10
      vertex -50 86.6025 0
    endloop
  endfacet
  facet normal -0.587785 0.809017 0
    outer loop
      vertex -50 86.6025 0
      vertex -66.9131 74.3145 10
      vertex -50 86.6025 10
    endloop
  endfacet
  facet normal -0.743145 0.669131 0
    outer loop
      vertex -80.9017 58.7785 0
      vertex -80.9017 58.7785 10
      vertex -66.9131 74.3145 0
    endloop
  endfacet
  facet normal -0.743145 0.669131 0
    outer loop
      vertex -66.9131 74.3145 0
      vertex -80.9017 58.7785 10
      vertex -66.9131 74.3145 10
    endloop
  endfacet
  facet normal -0.866025 0.5 0
    outer loop
      vertex -91.3545 40.6737 0
      vertex -91.3545 40.6737 10
      vertex -80.9017 58.7785 0
    endloop
  endfacet
  facet normal -0.866025 0.5 0
    outer loop
      vertex -80.9017 58.7785 0
      vertex -91.3545 40.6737 10
      vertex -80.9017 58.7785 10
    endloop
  endfacet
  facet normal -0.951057 0.309017 0
    outer loop
      vertex -97.8148 20.7912 0
      vertex -97.8148 20.7912 10
      vertex -91.3545 40.6737 0
    endloop
  endfacet
  facet normal -0.951057 0.309017 0
    outer loop
      vertex -91.3545 40.6737 0
      vertex -97.8148 20.7912 10
      vertex -91.3545 40.6737 10
    endloop
  endfacet
  facet normal 0.994522 0.104528 0
    outer loop
      vertex -99 0 10
      vertex -96.8366 -20.5833 10
      vertex -96.8366 -20.5833 0
    endloop
  endfacet
  facet normal 0.994522 0.104528 0
    outer loop
      vertex -99 0 0
      vertex -99 0 10
      vertex -96.8366 -20.5833 0
    endloop
  endfacet
  facet normal 0.994522 -0.104528 0
    outer loop
      vertex -96.8366 20.5833 0
      vertex -96.8366 20.5833 10
      vertex -99 0 10
    endloop
  endfacet
  facet normal 0.994522 -0.104528 0
    outer loop
      vertex -99 0 0
      vertex -96.8366 20.5833 0
      vertex -99 0 10
    endloop
  endfacet
  facet normal 0.951057 -0.309017 0
    outer loop
      vertex -90.441 40.2669 0
      vertex -90.441 40.2669 10
      vertex -96.8366 20.5833 10
    endloop
  endfacet
  facet normal 0.951057 -0.309017 0
    outer loop
      vertex -96.8366 20.5833 0
      vertex -90.441 40.2669 0
      vertex -96.8366 20.5833 10
    endloop
  endfacet
  facet normal 0.866025 -0.5 0
    outer loop
      vertex -80.0927 58.1907 0
      vertex -80.0927 58.1907 10
      vertex -90.441 40.2669 10
    endloop
  endfacet
  facet normal 0.866025 -0.5 0
    outer loop
      vertex -90.441 40.2669 0
      vertex -80.0927 58.1907 0
      vertex -90.441 40.2669 10
    endloop
  endfacet
  facet normal 0.743145 -0.669131 0
    outer loop
      vertex -66.2439 73.5713 0
      vertex -66.2439 73.5713 10
      vertex -80.0927 58.1907 10
    endloop
  endfacet
  facet normal 0.743145 -0.669131 0
    outer loop
      vertex -80.0927 58.1907 0
      vertex -66.2439 73.5713 0
      vertex -80.0927 58.1907 10
    endloop
  endfacet
  facet normal 0.587785 -0.809017 0
    outer loop
      vertex -49.5 85.7365 0
      vertex -49.5 85.7365 10
      vertex -66.2439 73.5713 10
    endloop
  endfacet
  facet normal 0.587785 -0.809017 0
    outer loop
      vertex -66.2439 73.5713 0
      vertex -49.5 85.7365 0
      vertex -66.2439 73.5713 10
    endloop
  endfacet
  facet normal 0.406737 -0.913545 0
    outer loop
      vertex -30.5927 94.1546 0
      vertex -30.5927 94.1546 10
      vertex -49.5 85.7365 10
    endloop
  endfacet
  facet normal 0.406737 -0.913545 0
    outer loop
      vertex -49.5 85.7365 0
      vertex -30.5927 94.1546 0
      vertex -49.5 85.7365 10
    endloop
  endfacet
  facet normal 0.207912 -0.978148 0
    outer loop
      vertex -10.3483 98.4577 0
      vertex -10.3483 98.4577 10
      vertex -30.5927 94.1546 10
    endloop
  endfacet
  facet normal 0.207912 -0.978148 0
    outer loop
      vertex -30.5927 94.1546 0
      vertex -10.3483 98.4577 0
      vertex -30.5927 94.1546 10
    endloop
  endfacet
  facet normal 0 -1 0
    outer loop
      vertex 10.3483 98.4577 0
      vertex 10.3483 98.4577 10
      vertex -10.3483 98.4577 10
    endloop
  endfacet
  facet normal -0 -1 -0
    outer loop
      vertex -10.3483 98.4577 0
      vertex 10.3483 98.4577 0
      vertex -10.3483 98.4577 10
    endloop
  endfacet
  facet normal -0.207912 -0.978148 -0
    outer loop
      vertex 30.5927 94.1546 0
      vertex 30.5927 94.1546 10
      vertex 10.3483 98.4577 10
    endloop
  endfacet
  facet normal -0.207912 -0.978148 -0
    outer loop
      vertex 10.3483 98.4577 0
      vertex 30.5927 94.1546 0
      vertex 10.3483 98.4577 10
    endloop
  endfacet
  facet normal -0.406737 -0.913545 -0
    outer loop
      vertex 49.5 85.7365 0
      vertex 49.5 85.7365 10
      vertex 30.5927 94.1546 10
    endloop
  endfacet
  facet normal -0.406737 -0.913545 -0
    outer loop
      vertex 30.5927 94.1546 0
      vertex 49.5 85.7365 0
      vertex 30.5927 94.1546 10
    endloop
  endfacet
  facet normal -0.587785 -0.809017 -0
    outer loop
      vertex 66.2439 73.5713 0
      vertex 66.2439 73.5713 10
      vertex 49.5 85.7365 10
    endloop
  endfacet
  facet normal -0.587785 -0.809017 -0
    outer loop
      vertex 49.5 85.7365 0
      vertex 66.2439 73.5713 0
      vertex 49.5 85.7365 10
    endloop
  endfacet
  facet normal -0.743145 -0.669131 0
    outer loop
      vertex 80.0927 58.1907 10
      vertex 66.2439 73.5713 10
      vertex 80.0927 58.1907 0
    endloop
  endfacet
  facet normal -0.743145 -0.669131 0
    outer loop
      vertex 80.0927 58.1907 0
      vertex 66.2439 73.5713 10
      vertex 66.2439 73.5713 0
    endloop
  endfacet
  facet normal -0.866025 -0.5 0
    outer loop
      vertex 90.441 40.2669 10
      vertex 80.0927 58.1907 10
      vertex 90.441 40.2669 0
    endloop
  endfacet
  facet normal -0.866025 -0.5 0
    outer loop
      vertex 90.441 40.2669 0
      vertex 80.0927 58.1907 10
      vertex 80.0927 58.1907 0
    endloop
  endfacet
  facet normal -0.951057 -0.309017 0
    outer loop
      vertex 96.8366 20.5833 10
      vertex 90.441 40.2669 10
      vertex 96.8366 20.5833 0
    endloop
  endfacet
  facet normal -0.951057 -0.309017 0
    outer loop
      vertex 96.8366 20.5833 0
      vertex 90.441 40.2669 10
      vertex 90.441 40.2669 0
    endloop
  endfacet
  facet normal -0.994522 -0.104528 0
    outer loop
      vertex 99 0 10
      vertex 96.8366 20.5833 10
      vertex 99 0 0
    endloop
  endfacet
  facet normal -0.994522 -0.104528 0
    outer loop
      vertex 99 0 0
      vertex 96.8366 20.5833 10
      vertex 96.8366 20.5833 0
    endloop
  endfacet
  facet normal -0.994522 0.104528 0
    outer loop
      vertex 99 0 10
      vertex 99 0 0
      vertex 96.8366 -20.5833 10
    endloop
  endfacet
  facet normal -0.994522 0.104528 0
    outer loop
      vertex 96.8366 -20.5833 10
      vertex 99 0 0
      vertex 96.8366 -20.5833 0
    endloop
  endfacet
  facet normal -0.951057 0.309017 0
    outer loop
      vertex 96.8366 -20.5833 10
      vertex 96.8366 -20.5833 0
      vertex 90.441 -40.2669 10
    endloop
  endfacet
  facet normal -0.951057 0.309017 0
    outer loop
      vertex 90.441 -40.2669 10
      vertex 96.8366 -20.5833 0
      vertex 90.441 -40.2669 0
    endloop
  endfacet
  facet normal -0.866025 0.5 0
    outer loop
      vertex 90.441 -40.2669 10
      vertex 90.441 -40.2669 0
      vertex 80.0927 -58.1907 10
    endloop
  endfacet
  facet normal -0.866025 0.5 0
    outer loop
      vertex 80.0927 -58.1907 10
      vertex 90.441 -40.2669 0
      vertex 80.0927 -58.1907 0
    endloop
  endfacet
  facet normal -0.743145 0.669131 0
    outer loop
      vertex 80.0927 -58.1907 10
      vertex 80.0927 -58.1907 0
      vertex 66.2439 -73.5713 10
    endloop
  endfacet
  facet normal -0.743145 0.669131 0
    outer loop
      vertex 66.2439 -73.5713 10
      vertex 80.0927 -58.1907 0
      vertex 66.2439 -73.5713 0
    endloop
  endfacet
  facet normal -0.587785 0.809017 0
    outer loop
      vertex 66.2439 -73.5713 10
      vertex 66.2439 -73.5713 0
      vertex 49.5 -85.7365 10
    endloop
  endfacet
  facet normal -0.587785 0.809017 0
    outer loop
      vertex 49.5 -85.7365 10
      vertex 66.2439 -73.5713 0
      vertex 49.5 -85.7365 0
    endloop
  endfacet
  facet normal -0.406737 0.913545 0
    outer loop
      vertex 49.5 -85.7365 10
      vertex 49.5 -85.7365 0
      vertex 30.5927 -94.1546 10
    endloop
  endfacet
  facet normal -0.406737 0.913545 0
    outer loop
      vertex 30.5927 -94.1546 10
      vertex 49.5 -85.7365 0
      vertex 30.5927 -94.1546 0
    endloop
  endfacet
  facet normal -0.207912 0.978148 0
    outer loop
      vertex 30.5927 -94.1546 10
      vertex 30.5927 -94.1546 0
      vertex 10.3483 -98.4577 10
    endloop
  endfacet
  facet normal -0.207912 0.978148 0
    outer loop
      vertex 10.3483 -98.4577 10
      vertex 30.5927 -94.1546 0
      vertex 10.3483 -98.4577 0
    endloop
  endfacet
  facet normal 0 1 0
    outer loop
      vertex 10.3483 -98.4577 10
      vertex 10.3483 -98.4577 0
      vertex -10.3483 -98.4577 10
    endloop
  endfacet
  facet normal 0 1 -0
    outer loop
      vertex -10.3483 -98.4577 10
      vertex 10.3483 -98.4577 0
      vertex -10.3483 -98.4577 0
    endloop
  endfacet
  facet normal 0.207912 0.978148 -0
    outer loop
      vertex -10.3483 -98.4577 10
      vertex -10.3483 -98.4577 0
      vertex -30.5927 -94.1546 10
    endloop
  endfacet
  facet normal 0.207912 0.978148 -0
    outer loop
      vertex -30.5927 -94.1546 10
      vertex -10.3483 -98.4577 0
      vertex -30.5927 -94.1546 0
    endloop
  endfacet
  facet normal 0.406737 0.913545 -0
    outer loop
      vertex -30.5927 -94.1546 10
      vertex -30.5927 -94.1546 0
      vertex -49.5 -85.7365 10
    endloop
  endfacet
  facet normal 0.406737 0.913545 -0
    outer loop
      vertex -49.5 -85.7365 10
      vertex -30.5927 -94.1546 0
      vertex -49.5 -85.7365 0
    endloop
  endfacet
  facet normal 0.587785 0.809017 -0
    outer loop
      vertex -49.5 -85.7365 10
      vertex -49.5 -85.7365 0
      vertex -66.2439 -73.5713 10
    endloop
  endfacet
  facet normal 0.587785 0.809017 -0
    outer loop
      vertex -66.2439 -73.5713 10
      vertex -49.5 -85.7365 0
      vertex -66.2439 -73.5713 0
    endloop
  endfacet
  facet normal 0.743145 0.669131 0
    outer loop
      vertex -80.0927 -58.1907 10
      vertex -66.2439 -73.5713 10
      vertex -66.2439 -73.5713 0
    endloop
  endfacet
  facet normal 0.743145 0.669131 0
    outer loop
      vertex -80.0927 -58.1907 0
      vertex -80.0927 -58.1907 10
      vertex -66.2439 -73.5713 0
    endloop
  endfacet
  facet normal 0.866025 0.5 0
    outer loop
      vertex -90.441 -40.2669 10
      vertex -80.0927 -58.1907 10
      vertex -80.0927 -58.1907 0
    endloop
  endfacet
  facet normal 0.866025 0.5 0
    outer loop
      vertex -90.441 -40.2669 0
      vertex -90.441 -40.2669 10
      vertex -80.0927 -58.1907 0
    endloop
  endfacet
  facet normal 0.951057 0.309017 0
    outer loop
      vertex -96.8366 -20.5833 10
      vertex -90.441 -40.2669 10
      vertex -90.441 -40.2669 0
    endloop
  endfacet
  facet normal 0.951057 0.309017 0
    outer loop
      vertex -96.8366 -20.5833 0
      vertex -96.8366 -20.5833 10
      vertex -90.441 -40.2669 0
    endloop
  endfacet
  facet normal 0 -0 1
    outer loop
      vertex -99 0 10
      vertex -100 0 10
      vertex -97.8148 -20.7912 10
    endloop
  endfacet
  facet normal -0 0 1
    outer loop
      vertex -96.8366 -20.5833 10
      vertex -99 0 10
      vertex -97.8148 -20.7912 10
    endloop
  endfacet
  facet normal 0 -0 1
    outer loop
      vertex 66.2439 -73.5713 10
      vertex 49.5 -85.7365 10
      vertex 66.9131 -74.3145 10
    endloop
  endfacet
  facet normal 0 0 1
    outer loop
      vertex -90.441 40.2669 10
      vertex -80.0927 58.1907 10
      vertex -80.9017 58.7785 10
    endloop
  endfacet
  facet normal 0 0 1
    outer loop
      vertex -91.3545 -40.6737 10
      vertex -96.8366 -20.5833 10
      vertex -97.8148 -20.7912 10
    endloop
  endfacet
  facet normal 0 -0 1
    outer loop
      vertex 96.8366 -20.5833 10
      vertex 90.441 -40.2669 10
      vertex 97.8148 -20.7912 10
    endloop
  endfacet
  facet normal 0 0 1
    outer loop
      vertex -97.8148 20.7912 10
      vertex -100 0 10
      vertex -99 0 10
    endloop
  endfacet
  facet normal 0 -0 1
    outer loop
      vertex 80.0927 -58.1907 10
      vertex 66.2439 -73.5713 10
      vertex 80.9017 -58.7785 10
    endloop
  endfacet
  facet normal 0 0 1
    outer loop
      vertex -91.3545 40.6737 10
      vertex -90.441 40.2669 10
      vertex -80.9017 58.7785 10
    endloop
  endfacet
  facet normal 0 -0 1
    outer loop
      vertex -91.3545 40.6737 10
      vertex -97.8148 20.7912 10
      vertex -90.441 40.2669 10
    endloop
  endfacet
  facet normal 0 0 1
    outer loop
      vertex -80.9017 58.7785 10
      vertex -80.0927 58.1907 10
      vertex -66.9131 74.3145 10
    endloop
  endfacet
  facet normal 0 0 1
    outer loop
      vertex -80.0927 58.1907 10
      vertex -66.2439 73.5713 10
      vertex -66.9131 74.3145 10
    endloop
  endfacet
  facet normal 0 0 1
    outer loop
      vertex -66.9131 74.3145 10
      vertex -66.2439 73.5713 10
      vertex -50 86.6025 10
    endloop
  endfacet
  facet normal 0 0 1
    outer loop
      vertex -50 86.6025 10
      vertex -49.5 85.7365 10
      vertex -30.9017 95.1057 10
    endloop
  endfacet
  facet normal 0 0 1
    outer loop
      vertex -30.9017 95.1057 10
      vertex -30.5927 94.1546 10
      vertex -10.4528 99.4522 10
    endloop
  endfacet
  facet normal 0 0 1
    outer loop
      vertex -10.4528 99.4522 10
      vertex -10.3483 98.4577 10
      vertex 10.4528 99.4522 10
    endloop
  endfacet
  facet normal 0 -0 1
    outer loop
      vertex 10.4528 99.4522 10
      vertex 10.3483 98.4577 10
      vertex 30.9017 95.1057 10
    endloop
  endfacet
  facet normal 0 -0 1
    outer loop
      vertex 30.9017 95.1057 10
      vertex 30.5927 94.1546 10
      vertex 50 86.6025 10
    endloop
  endfacet
  facet normal 0 -0 1
    outer loop
      vertex 50 86.6025 10
      vertex 49.5 85.7365 10
      vertex 66.9131 74.3145 10
    endloop
  endfacet
  facet normal 0 -0 1
    outer loop
      vertex 66.9131 74.3145 10
      vertex 66.2439 73.5713 10
      vertex 80.9017 58.7785 10
    endloop
  endfacet
  facet normal 0 -0 1
    outer loop
      vertex 80.9017 58.7785 10
      vertex 80.0927 58.1907 10
      vertex 91.3545 40.6737 10
    endloop
  endfacet
  facet normal 0 -0 1
    outer loop
      vertex 91.3545 40.6737 10
      vertex 90.441 40.2669 10
      vertex 97.8148 20.7912 10
    endloop
  endfacet
  facet normal 0 -0 1
    outer loop
      vertex 97.8148 20.7912 10
      vertex 96.8366 20.5833 10
      vertex 100 0 10
    endloop
  endfacet
  facet normal 0 0 1
    outer loop
      vertex 100 0 10
      vertex 99 0 10
      vertex 97.8148 -20.7912 10
    endloop
  endfacet
  facet normal 0 0 1
    outer loop
      vertex 99 0 10
      vertex 96.8366 -20.5833 10
      vertex 97.8148 -20.7912 10
    endloop
  endfacet
  facet normal 0 0 1
    outer loop
      vertex 97.8148 -20.7912 10
      vertex 90.441 -40.2669 10
      vertex 91.3545 -40.6737 10
    endloop
  endfacet
  facet normal 0 0 1
    outer loop
      vertex 91.3545 -40.6737 10
      vertex 80.0927 -58.1907 10
      vertex 80.9017 -58.7785 10
    endloop
  endfacet
  facet normal 0 0 1
    outer loop
      vertex -66.2439 73.5713 10
      vertex -49.5 85.7365 10
      vertex -50 86.6025 10
    endloop
  endfacet
  facet normal 0 0 1
    outer loop
      vertex 80.9017 -58.7785 10
      vertex 66.2439 -73.5713 10
      vertex 66.9131 -74.3145 10
    endloop
  endfacet
  facet normal 0 0 1
    outer loop
      vertex -49.5 85.7365 10
      vertex -30.5927 94.1546 10
      vertex -30.9017 95.1057 10
    endloop
  endfacet
  facet normal 0 0 1
    outer loop
      vertex 66.9131 -74.3145 10
      vertex 49.5 -85.7365 10
      vertex 50 -86.6025 10
    endloop
  endfacet
  facet normal 0 0 1
    outer loop
      vertex -30.5927 94.1546 10
      vertex -10.3483 98.4577 10
      vertex -10.4528 99.4522 10
    endloop
  endfacet
  facet normal 0 0 1
    outer loop
      vertex 50 -86.6025 10
      vertex 30.5927 -94.1546 10
      vertex 30.9017 -95.1057 10
    endloop
  endfacet
  facet normal 0 0 1
    outer loop
      vertex -10.3483 98.4577 10
      vertex 10.3483 98.4577 10
      vertex 10.4528 99.4522 10
    endloop
  endfacet
  facet normal 0 0 1
    outer loop
      vertex 30.9017 -95.1057 10
      vertex 10.3483 -98.4577 10
      vertex 10.4528 -99.4522 10
    endloop
  endfacet
  facet normal 0 0 1
    outer loop
      vertex 10.3483 98.4577 10
      vertex 30.5927 94.1546 10
      vertex 30.9017 95.1057 10
    endloop
  endfacet
  facet normal -0 0 1
    outer loop
      vertex 10.4528 -99.4522 10
      vertex -10.3483 -98.4577 10
      vertex -10.4528 -99.4522 10
    endloop
  endfacet
  facet normal 0 0 1
    outer loop
      vertex 30.5927 94.1546 10
      vertex 49.5 85.7365 10
      vertex 50 86.6025 10
    endloop
  endfacet
  facet normal 0 0 1
    outer loop
      vertex -10.4528 -99.4522 10
      vertex -30.5927 -94.1546 10
      vertex -30.9017 -95.1057 10
    endloop
  endfacet
  facet normal 0 0 1
    outer loop
      vertex 49.5 85.7365 10
      vertex 66.2439 73.5713 10
      vertex 66.9131 74.3145 10
    endloop
  endfacet
  facet normal 0 0 1
    outer loop
      vertex -30.9017 -95.1057 10
      vertex -49.5 -85.7365 10
      vertex -50 -86.6025 10
    endloop
  endfacet
  facet normal 0 0 1
    outer loop
      vertex 66.2439 73.5713 10
      vertex 80.0927 58.1907 10
      vertex 80.9017 58.7785 10
    endloop
  endfacet
  facet normal 0 0 1
    outer loop
      vertex -50 -86.6025 10
      vertex -66.2439 -73.5713 10
      vertex -66.9131 -74.3145 10
    endloop
  endfacet
  facet normal 0 0 1
    outer loop
      vertex 80.0927 58.1907 10
      vertex 90.441 40.2669 10
      vertex 91.3545 40.6737 10
    endloop
  endfacet
  facet normal 0 0 1
    outer loop
      vertex -66.9131 -74.3145 10
      vertex -80.0927 -58.1907 10
      vertex -80.9017 -58.7785 10
    endloop
  endfacet
  facet normal 0 0 1
    outer loop
      vertex 90.441 40.2669 10
      vertex 96.8366 20.5833 10
      vertex 97.8148 20.7912 10
    endloop
  endfacet
  facet normal 0 0 1
    outer loop
      vertex -80.9017 -58.7785 10
      vertex -90.441 -40.2669 10
      vertex -91.3545 -40.6737 10
    endloop
  endfacet
  facet normal 0 0 1
    outer loop
      vertex 96.8366 20.5833 10
      vertex 99 0 10
      vertex 100 0 10
    endloop
  endfacet
  facet normal -0 0 1
    outer loop
      vertex -90.441 -40.2669 10
      vertex -96.8366 -20.5833 10
      vertex -91.3545 -40.6737 10
    endloop
  endfacet
  facet normal 0 -0 1
    outer loop
      vertex 49.5 -85.7365 10
      vertex 30.5927 -94.1546 10
      vertex 50 -86.6025 10
    endloop
  endfacet
  facet normal 0 -0 1
    outer loop
      vertex 30.5927 -94.1546 10
      vertex 10.3483 -98.4577 10
      vertex 30.9017 -95.1057 10
    endloop
  endfacet
  facet normal 0 -0 1
    outer loop
      vertex 10.3483 -98.4577 10
      vertex -10.3483 -98.4577 10
      vertex 10.4528 -99.4522 10
    endloop
  endfacet
  facet normal -0 0 1
    outer loop
      vertex -10.3483 -98.4577 10
      vertex -30.5927 -94.1546 10
      vertex -10.4528 -99.4522 10
    endloop
  endfacet
  facet normal -0 0 1
    outer loop
      vertex -30.5927 -94.1546 10
      vertex -49.5 -85.7365 10
      vertex -30.9017 -95.1057 10
    endloop
  endfacet
  facet normal -0 0 1
    outer loop
      vertex -49.5 -85.7365 10
      vertex -66.2439 -73.5713 10
      vertex -50 -86.6025 10
    endloop
  endfacet
  facet normal -0 0 1
    outer loop
      vertex -66.2439 -73.5713 10
      vertex -80.0927 -58.1907 10
      vertex -66.9131 -74.3145 10
    endloop
  endfacet
  facet normal -0 0 1
    outer loop
      vertex -80.0927 -58.1907 10
      vertex -90.441 -40.2669 10
      vertex -80.9017 -58.7785 10
    endloop
  endfacet
  facet normal 0 0 1
    outer loop
      vertex -99 0 10
      vertex -96.8366 20.5833 10
      vertex -97.8148 20.7912 10
    endloop
  endfacet
  facet normal 0 -0 1
    outer loop
      vertex 90.441 -40.2669 10
      vertex 80.0927 -58.1907 10
      vertex 91.3545 -40.6737 10
    endloop
  endfacet
  facet normal 0 0 1
    outer loop
      vertex -96.8366 20.5833 10
      vertex -90.441 40.2669 10
      vertex -97.8148 20.7912 10
    endloop
  endfacet
endsolid OpenSCAD_Model
