solid OpenSCAD_Model
  facet normal 0 0 -1
    outer loop
      vertex -116.4 -24.7415 0
      vertex -117.378 -24.9494 0
      vertex -119 0 0
    endloop
  endfacet
  facet normal 0 -0 -1
    outer loop
      vertex -116.4 24.7415 0
      vertex -117.378 24.9494 0
      vertex -109.625 48.8084 0
    endloop
  endfacet
  facet normal 0 -0 -1
    outer loop
      vertex -108.712 48.4017 0
      vertex -109.625 48.8084 0
      vertex -97.082 70.5342 0
    endloop
  endfacet
  facet normal 0 -0 -1
    outer loop
      vertex -96.273 69.9464 0
      vertex -97.082 70.5342 0
      vertex -80.2957 89.1774 0
    endloop
  endfacet
  facet normal 0 -0 -1
    outer loop
      vertex -79.6265 88.4342 0
      vertex -80.2957 89.1774 0
      vertex -60 103.923 0
    endloop
  endfacet
  facet normal 0 -0 -1
    outer loop
      vertex -59.5 103.057 0
      vertex -60 103.923 0
      vertex -37.082 114.127 0
    endloop
  endfacet
  facet normal 0 -0 -1
    outer loop
      vertex -36.773 113.176 0
      vertex -37.082 114.127 0
      vertex -12.5434 119.343 0
    endloop
  endfacet
  facet normal 0 -0 -1
    outer loop
      vertex -12.4389 118.348 0
      vertex -12.5434 119.343 0
      vertex 12.5434 119.343 0
    endloop
  endfacet
  facet normal -0 0 -1
    outer loop
      vertex 12.4389 118.348 0
      vertex 12.5434 119.343 0
      vertex 37.082 114.127 0
    endloop
  endfacet
  facet normal -0 0 -1
    outer loop
      vertex 36.773 113.176 0
      vertex 37.082 114.127 0
      vertex 60 103.923 0
    endloop
  endfacet
  facet normal -0 0 -1
    outer loop
      vertex 59.5 103.057 0
      vertex 60 103.923 0
      vertex 80.2957 89.1774 0
    endloop
  endfacet
  facet normal -0 0 -1
    outer loop
      vertex 79.6265 88.4342 0
      vertex 80.2957 89.1774 0
      vertex 97.082 70.5342 0
    endloop
  endfacet
  facet normal -0 0 -1
    outer loop
      vertex 96.273 69.9464 0
      vertex 97.082 70.5342 0
      vertex 109.625 48.8084 0
    endloop
  endfacet
  facet normal -0 0 -1
    outer loop
      vertex 108.712 48.4017 0
      vertex 109.625 48.8084 0
      vertex 117.378 24.9494 0
    endloop
  endfacet
  facet normal -0 -0 -1
    outer loop
      vertex 119 0 0
      vertex 117.378 24.9494 0
      vertex 120 0 0
    endloop
  endfacet
  facet normal -0 0 -1
    outer loop
      vertex 116.4 -24.7415 0
      vertex 120 0 0
      vertex 117.378 -24.9494 0
    endloop
  endfacet
  facet normal -0 0 -1
    outer loop
      vertex 108.712 -48.4017 0
      vertex 117.378 -24.9494 0
      vertex 109.625 -48.8084 0
    endloop
  endfacet
  facet normal -0 0 -1
    outer loop
      vertex 96.273 -69.9464 0
      vertex 109.625 -48.8084 0
      vertex 97.082 -70.5342 0
    endloop
  endfacet
  facet normal -0 0 -1
    outer loop
      vertex 79.6265 -88.4342 0
      vertex 97.082 -70.5342 0
      vertex 80.2957 -89.1774 0
    endloop
  endfacet
  facet normal -0 0 -1
    outer loop
      vertex 59.5 -103.057 0
      vertex 80.2957 -89.1774 0
      vertex 60 -103.923 0
    endloop
  endfacet
  facet normal -0 0 -1
    outer loop
      vertex 36.773 -113.176 0
      vertex 60 -103.923 0
      vertex 37.082 -114.127 0
    endloop
  endfacet
  facet normal -0 0 -1
    outer loop
      vertex 12.4389 -118.348 0
      vertex 37.082 -114.127 0
      vertex 12.5434 -119.343 0
    endloop
  endfacet
  facet normal 0 0 -1
    outer loop
      vertex -12.4389 -118.348 0
      vertex 12.5434 -119.343 0
      vertex -12.5434 -119.343 0
    endloop
  endfacet
  facet normal 0 0 -1
    outer loop
      vertex -36.773 -113.176 0
      vertex -12.5434 -119.343 0
      vertex -37.082 -114.127 0
    endloop
  endfacet
  facet normal 0 0 -1
    outer loop
      vertex -59.5 -103.057 0
      vertex -37.082 -114.127 0
      vertex -60 -103.923 0
    endloop
  endfacet
  facet normal 0 0 -1
    outer loop
      vertex -79.6265 -88.4342 0
      vertex -60 -103.923 0
      vertex -80.2957 -89.1774 0
    endloop
  endfacet
  facet normal 0 0 -1
    outer loop
      vertex -96.273 -69.9464 0
      vertex -80.2957 -89.1774 0
      vertex -97.082 -70.5342 0
    endloop
  endfacet
  facet normal 0 0 -1
    outer loop
      vertex -108.712 -48.4017 0
      vertex -97.082 -70.5342 0
      vertex -109.625 -48.8084 0
    endloop
  endfacet
  facet normal -0 0 -1
    outer loop
      vertex -120 0 0
      vertex -117.378 24.9494 0
      vertex -119 0 0
    endloop
  endfacet
  facet normal 0 0 -1
    outer loop
      vertex -120 0 0
      vertex -119 0 0
      vertex -117.378 -24.9494 0
    endloop
  endfacet
  facet normal 0 0 -1
    outer loop
      vertex -108.712 -48.4017 0
      vertex -117.378 -24.9494 0
      vertex -116.4 -24.7415 0
    endloop
  endfacet
  facet normal 0 0 -1
    outer loop
      vertex -96.273 -69.9464 0
      vertex -97.082 -70.5342 0
      vertex -108.712 -48.4017 0
    endloop
  endfacet
  facet normal 0 0 -1
    outer loop
      vertex -117.378 -24.9494 0
      vertex -108.712 -48.4017 0
      vertex -109.625 -48.8084 0
    endloop
  endfacet
  facet normal -0 0 -1
    outer loop
      vertex 116.4 24.7415 0
      vertex 117.378 24.9494 0
      vertex 119 0 0
    endloop
  endfacet
  facet normal 0 0 -1
    outer loop
      vertex 96.273 69.9464 0
      vertex 109.625 48.8084 0
      vertex 108.712 48.4017 0
    endloop
  endfacet
  facet normal 0 0 -1
    outer loop
      vertex 108.712 48.4017 0
      vertex 117.378 24.9494 0
      vertex 116.4 24.7415 0
    endloop
  endfacet
  facet normal 0 0 -1
    outer loop
      vertex 119 0 0
      vertex 120 0 0
      vertex 116.4 -24.7415 0
    endloop
  endfacet
  facet normal 0 0 -1
    outer loop
      vertex 116.4 -24.7415 0
      vertex 117.378 -24.9494 0
      vertex 108.712 -48.4017 0
    endloop
  endfacet
  facet normal 0 0 -1
    outer loop
      vertex 108.712 -48.4017 0
      vertex 109.625 -48.8084 0
      vertex 96.273 -69.9464 0
    endloop
  endfacet
  facet normal 0 0 -1
    outer loop
      vertex 96.273 -69.9464 0
      vertex 97.082 -70.5342 0
      vertex 79.6265 -88.4342 0
    endloop
  endfacet
  facet normal 0 0 -1
    outer loop
      vertex 79.6265 -88.4342 0
      vertex 80.2957 -89.1774 0
      vertex 59.5 -103.057 0
    endloop
  endfacet
  facet normal 0 0 -1
    outer loop
      vertex 59.5 -103.057 0
      vertex 60 -103.923 0
      vertex 36.773 -113.176 0
    endloop
  endfacet
  facet normal 0 0 -1
    outer loop
      vertex 36.773 -113.176 0
      vertex 37.082 -114.127 0
      vertex 12.4389 -118.348 0
    endloop
  endfacet
  facet normal 0 0 -1
    outer loop
      vertex 12.4389 -118.348 0
      vertex 12.5434 -119.343 0
      vertex -12.4389 -118.348 0
    endloop
  endfacet
  facet normal 0 0 -1
    outer loop
      vertex -12.4389 -118.348 0
      vertex -12.5434 -119.343 0
      vertex -36.773 -113.176 0
    endloop
  endfacet
  facet normal 0 0 -1
    outer loop
      vertex -36.773 -113.176 0
      vertex -37.082 -114.127 0
      vertex -59.5 -103.057 0
    endloop
  endfacet
  facet normal 0 0 -1
    outer loop
      vertex -119 0 0
      vertex -117.378 24.9494 0
      vertex -116.4 24.7415 0
    endloop
  endfacet
  facet normal 0 0 -1
    outer loop
      vertex -116.4 24.7415 0
      vertex -109.625 48.8084 0
      vertex -108.712 48.4017 0
    endloop
  endfacet
  facet normal 0 0 -1
    outer loop
      vertex -108.712 48.4017 0
      vertex -97.082 70.5342 0
      vertex -96.273 69.9464 0
    endloop
  endfacet
  facet normal 0 0 -1
    outer loop
      vertex -96.273 69.9464 0
      vertex -80.2957 89.1774 0
      vertex -79.6265 88.4342 0
    endloop
  endfacet
  facet normal 0 0 -1
    outer loop
      vertex -79.6265 88.4342 0
      vertex -60 103.923 0
      vertex -59.5 103.057 0
    endloop
  endfacet
  facet normal 0 0 -1
    outer loop
      vertex -59.5 103.057 0
      vertex -37.082 114.127 0
      vertex -36.773 113.176 0
    endloop
  endfacet
  facet normal 0 0 -1
    outer loop
      vertex -36.773 113.176 0
      vertex -12.5434 119.343 0
      vertex -12.4389 118.348 0
    endloop
  endfacet
  facet normal -0 0 -1
    outer loop
      vertex -12.4389 118.348 0
      vertex 12.5434 119.343 0
      vertex 12.4389 118.348 0
    endloop
  endfacet
  facet normal 0 0 -1
    outer loop
      vertex 12.4389 118.348 0
      vertex 37.082 114.127 0
      vertex 36.773 113.176 0
    endloop
  endfacet
  facet normal 0 0 -1
    outer loop
      vertex 36.773 113.176 0
      vertex 60 103.923 0
      vertex 59.5 103.057 0
    endloop
  endfacet
  facet normal 0 0 -1
    outer loop
      vertex 59.5 103.057 0
      vertex 80.2957 89.1774 0
      vertex 79.6265 88.4342 0
    endloop
  endfacet
  facet normal 0 0 -1
    outer loop
      vertex 79.6265 88.4342 0
      vertex 97.082 70.5342 0
      vertex 96.273 69.9464 0
    endloop
  endfacet
  facet normal 0 0 -1
    outer loop
      vertex -59.5 -103.057 0
      vertex -60 -103.923 0
      vertex -79.6265 -88.4342 0
    endloop
  endfacet
  facet normal 0 0 -1
    outer loop
      vertex -79.6265 -88.4342 0
      vertex -80.2957 -89.1774 0
      vertex -96.273 -69.9464 0
    endloop
  endfacet
  facet normal -0.994522 0.104528 0
    outer loop
      vertex -120 0 0
      vertex -120 0 10
      vertex -117.378 24.9494 0
    endloop
  endfacet
  facet normal -0.994522 0.104528 0
    outer loop
      vertex -117.378 24.9494 0
      vertex -120 0 10
      vertex -117.378 24.9494 10
    endloop
  endfacet
  facet normal -0.994522 -0.104528 -0
    outer loop
      vertex -120 0 0
      vertex -117.378 -24.9494 0
      vertex -120 0 10
    endloop
  endfacet
  facet normal -0.994522 -0.104528 0
    outer loop
      vertex -120 0 10
      vertex -117.378 -24.9494 0
      vertex -117.378 -24.9494 10
    endloop
  endfacet
  facet normal -0.951057 -0.309017 -0
    outer loop
      vertex -117.378 -24.9494 0
      vertex -109.625 -48.8084 0
      vertex -117.378 -24.9494 10
    endloop
  endfacet
  facet normal -0.951057 -0.309017 0
    outer loop
      vertex -117.378 -24.9494 10
      vertex -109.625 -48.8084 0
      vertex -109.625 -48.8084 10
    endloop
  endfacet
  facet normal -0.866025 -0.5 -0
    outer loop
      vertex -109.625 -48.8084 0
      vertex -97.082 -70.5342 0
      vertex -109.625 -48.8084 10
    endloop
  endfacet
  facet normal -0.866025 -0.5 0
    outer loop
      vertex -109.625 -48.8084 10
      vertex -97.082 -70.5342 0
      vertex -97.082 -70.5342 10
    endloop
  endfacet
  facet normal -0.743145 -0.669131 -0
    outer loop
      vertex -97.082 -70.5342 0
      vertex -80.2957 -89.1774 0
      vertex -97.082 -70.5342 10
    endloop
  endfacet
  facet normal -0.743145 -0.669131 0
    outer loop
      vertex -97.082 -70.5342 10
      vertex -80.2957 -89.1774 0
      vertex -80.2957 -89.1774 10
    endloop
  endfacet
  facet normal -0.587785 -0.809017 0
    outer loop
      vertex -80.2957 -89.1774 10
      vertex -80.2957 -89.1774 0
      vertex -60 -103.923 0
    endloop
  endfacet
  facet normal -0.587785 -0.809017 0
    outer loop
      vertex -60 -103.923 10
      vertex -80.2957 -89.1774 10
      vertex -60 -103.923 0
    endloop
  endfacet
  facet normal -0.406737 -0.913545 0
    outer loop
      vertex -60 -103.923 10
      vertex -60 -103.923 0
      vertex -37.082 -114.127 0
    endloop
  endfacet
  facet normal -0.406737 -0.913545 0
    outer loop
      vertex -37.082 -114.127 10
      vertex -60 -103.923 10
      vertex -37.082 -114.127 0
    endloop
  endfacet
  facet normal -0.207912 -0.978148 0
    outer loop
      vertex -37.082 -114.127 10
      vertex -37.082 -114.127 0
      vertex -12.5434 -119.343 0
    endloop
  endfacet
  facet normal -0.207912 -0.978148 0
    outer loop
      vertex -12.5434 -119.343 10
      vertex -37.082 -114.127 10
      vertex -12.5434 -119.343 0
    endloop
  endfacet
  facet normal 0 -1 0
    outer loop
      vertex -12.5434 -119.343 10
      vertex -12.5434 -119.343 0
      vertex 12.5434 -119.343 0
    endloop
  endfacet
  facet normal 0 -1 0
    outer loop
      vertex 12.5434 -119.343 10
      vertex -12.5434 -119.343 10
      vertex 12.5434 -119.343 0
    endloop
  endfacet
  facet normal 0.207912 -0.978148 0
    outer loop
      vertex 12.5434 -119.343 10
      vertex 12.5434 -119.343 0
      vertex 37.082 -114.127 0
    endloop
  endfacet
  facet normal 0.207912 -0.978148 0
    outer loop
      vertex 37.082 -114.127 10
      vertex 12.5434 -119.343 10
      vertex 37.082 -114.127 0
    endloop
  endfacet
  facet normal 0.406737 -0.913545 0
    outer loop
      vertex 37.082 -114.127 10
      vertex 37.082 -114.127 0
      vertex 60 -103.923 0
    endloop
  endfacet
  facet normal 0.406737 -0.913545 0
    outer loop
      vertex 60 -103.923 10
      vertex 37.082 -114.127 10
      vertex 60 -103.923 0
    endloop
  endfacet
  facet normal 0.587785 -0.809017 0
    outer loop
      vertex 60 -103.923 10
      vertex 60 -103.923 0
      vertex 80.2957 -89.1774 0
    endloop
  endfacet
  facet normal 0.587785 -0.809017 0
    outer loop
      vertex 80.2957 -89.1774 10
      vertex 60 -103.923 10
      vertex 80.2957 -89.1774 0
    endloop
  endfacet
  facet normal 0.743145 -0.669131 0
    outer loop
      vertex 80.2957 -89.1774 10
      vertex 80.2957 -89.1774 0
      vertex 97.082 -70.5342 0
    endloop
  endfacet
  facet normal 0.743145 -0.669131 0
    outer loop
      vertex 97.082 -70.5342 10
      vertex 80.2957 -89.1774 10
      vertex 97.082 -70.5342 0
    endloop
  endfacet
  facet normal 0.866025 -0.5 0
    outer loop
      vertex 97.082 -70.5342 10
      vertex 97.082 -70.5342 0
      vertex 109.625 -48.8084 0
    endloop
  endfacet
  facet normal 0.866025 -0.5 0
    outer loop
      vertex 109.625 -48.8084 10
      vertex 97.082 -70.5342 10
      vertex 109.625 -48.8084 0
    endloop
  endfacet
  facet normal 0.951057 -0.309017 0
    outer loop
      vertex 109.625 -48.8084 10
      vertex 109.625 -48.8084 0
      vertex 117.378 -24.9494 0
    endloop
  endfacet
  facet normal 0.951057 -0.309017 0
    outer loop
      vertex 117.378 -24.9494 10
      vertex 109.625 -48.8084 10
      vertex 117.378 -24.9494 0
    endloop
  endfacet
  facet normal 0.994522 -0.104528 0
    outer loop
      vertex 117.378 -24.9494 10
      vertex 117.378 -24.9494 0
      vertex 120 0 0
    endloop
  endfacet
  facet normal 0.994522 -0.104528 0
    outer loop
      vertex 120 0 10
      vertex 117.378 -24.9494 10
      vertex 120 0 0
    endloop
  endfacet
  facet normal 0.994522 0.104528 0
    outer loop
      vertex 120 0 0
      vertex 117.378 24.9494 0
      vertex 117.378 24.9494 10
    endloop
  endfacet
  facet normal 0.994522 0.104528 -0
    outer loop
      vertex 120 0 10
      vertex 120 0 0
      vertex 117.378 24.9494 10
    endloop
  endfacet
  facet normal 0.951057 0.309017 0
    outer loop
      vertex 117.378 24.9494 0
      vertex 109.625 48.8084 0
      vertex 109.625 48.8084 10
    endloop
  endfacet
  facet normal 0.951057 0.309017 -0
    outer loop
      vertex 117.378 24.9494 10
      vertex 117.378 24.9494 0
      vertex 109.625 48.8084 10
    endloop
  endfacet
  facet normal 0.866025 0.5 0
    outer loop
      vertex 109.625 48.8084 0
      vertex 97.082 70.5342 0
      vertex 97.082 70.5342 10
    endloop
  endfacet
  facet normal 0.866025 0.5 -0
    outer loop
      vertex 109.625 48.8084 10
      vertex 109.625 48.8084 0
      vertex 97.082 70.5342 10
    endloop
  endfacet
  facet normal 0.743145 0.669131 0
    outer loop
      vertex 97.082 70.5342 0
      vertex 80.2957 89.1774 0
      vertex 80.2957 89.1774 10
    endloop
  endfacet
  facet normal 0.743145 0.669131 -0
    outer loop
      vertex 97.082 70.5342 10
      vertex 97.082 70.5342 0
      vertex 80.2957 89.1774 10
    endloop
  endfacet
  facet normal 0.587785 0.809017 0
    outer loop
      vertex 60 103.923 0
      vertex 60 103.923 10
      vertex 80.2957 89.1774 0
    endloop
  endfacet
  facet normal 0.587785 0.809017 0
    outer loop
      vertex 80.2957 89.1774 0
      vertex 60 103.923 10
      vertex 80.2957 89.1774 10
    endloop
  endfacet
  facet normal 0.406737 0.913545 0
    outer loop
      vertex 37.082 114.127 0
      vertex 37.082 114.127 10
      vertex 60 103.923 0
    endloop
  endfacet
  facet normal 0.406737 0.913545 0
    outer loop
      vertex 60 103.923 0
      vertex 37.082 114.127 10
      vertex 60 103.923 10
    endloop
  endfacet
  facet normal 0.207912 0.978148 0
    outer loop
      vertex 12.5434 119.343 0
      vertex 12.5434 119.343 10
      vertex 37.082 114.127 0
    endloop
  endfacet
  facet normal 0.207912 0.978148 0
    outer loop
      vertex 37.082 114.127 0
      vertex 12.5434 119.343 10
      vertex 37.082 114.127 10
    endloop
  endfacet
  facet normal 0 1 0
    outer loop
      vertex -12.5434 119.343 0
      vertex -12.5434 119.343 10
      vertex 12.5434 119.343 0
    endloop
  endfacet
  facet normal 0 1 0
    outer loop
      vertex 12.5434 119.343 0
      vertex -12.5434 119.343 10
      vertex 12.5434 119.343 10
    endloop
  endfacet
  facet normal -0.207912 0.978148 0
    outer loop
      vertex -37.082 114.127 0
      vertex -37.082 114.127 10
      vertex -12.5434 119.343 0
    endloop
  endfacet
  facet normal -0.207912 0.978148 0
    outer loop
      vertex -12.5434 119.343 0
      vertex -37.082 114.127 10
      vertex -12.5434 119.343 10
    endloop
  endfacet
  facet normal -0.406737 0.913545 0
    outer loop
      vertex -60 103.923 0
      vertex -60 103.923 10
      vertex -37.082 114.127 0
    endloop
  endfacet
  facet normal -0.406737 0.913545 0
    outer loop
      vertex -37.082 114.127 0
      vertex -60 103.923 10
      vertex -37.082 114.127 10
    endloop
  endfacet
  facet normal -0.587785 0.809017 0
    outer loop
      vertex -80.2957 89.1774 0
      vertex -80.2957 89.1774 10
      vertex -60 103.923 0
    endloop
  endfacet
  facet normal -0.587785 0.809017 0
    outer loop
      vertex -60 103.923 0
      vertex -80.2957 89.1774 10
      vertex -60 103.923 10
    endloop
  endfacet
  facet normal -0.743145 0.669131 0
    outer loop
      vertex -97.082 70.5342 0
      vertex -97.082 70.5342 10
      vertex -80.2957 89.1774 0
    endloop
  endfacet
  facet normal -0.743145 0.669131 0
    outer loop
      vertex -80.2957 89.1774 0
      vertex -97.082 70.5342 10
      vertex -80.2957 89.1774 10
    endloop
  endfacet
  facet normal -0.866025 0.5 0
    outer loop
      vertex -109.625 48.8084 0
      vertex -109.625 48.8084 10
      vertex -97.082 70.5342 0
    endloop
  endfacet
  facet normal -0.866025 0.5 0
    outer loop
      vertex -97.082 70.5342 0
      vertex -109.625 48.8084 10
      vertex -97.082 70.5342 10
    endloop
  endfacet
  facet normal -0.951057 0.309017 0
    outer loop
      vertex -117.378 24.9494 0
      vertex -117.378 24.9494 10
      vertex -109.625 48.8084 0
    endloop
  endfacet
  facet normal -0.951057 0.309017 0
    outer loop
      vertex -109.625 48.8084 0
      vertex -117.378 24.9494 10
      vertex -109.625 48.8084 10
    endloop
  endfacet
  facet normal 0.994522 0.104528 0
    outer loop
      vertex -119 0 10
      vertex -116.4 -24.7415 10
      vertex -116.4 -24.7415 0
    endloop
  endfacet
  facet normal 0.994522 0.104528 0
    outer loop
      vertex -119 0 0
      vertex -119 0 10
      vertex -116.4 -24.7415 0
    endloop
  endfacet
  facet normal 0.994522 -0.104528 0
    outer loop
      vertex -116.4 24.7415 0
      vertex -116.4 24.7415 10
      vertex -119 0 10
    endloop
  endfacet
  facet normal 0.994522 -0.104528 0
    outer loop
      vertex -119 0 0
      vertex -116.4 24.7415 0
      vertex -119 0 10
    endloop
  endfacet
  facet normal 0.951057 -0.309017 0
    outer loop
      vertex -108.712 48.4017 0
      vertex -108.712 48.4017 10
      vertex -116.4 24.7415 10
    endloop
  endfacet
  facet normal 0.951057 -0.309017 0
    outer loop
      vertex -116.4 24.7415 0
      vertex -108.712 48.4017 0
      vertex -116.4 24.7415 10
    endloop
  endfacet
  facet normal 0.866025 -0.5 0
    outer loop
      vertex -96.273 69.9464 0
      vertex -96.273 69.9464 10
      vertex -108.712 48.4017 10
    endloop
  endfacet
  facet normal 0.866025 -0.5 0
    outer loop
      vertex -108.712 48.4017 0
      vertex -96.273 69.9464 0
      vertex -108.712 48.4017 10
    endloop
  endfacet
  facet normal 0.743145 -0.669131 0
    outer loop
      vertex -79.6265 88.4342 0
      vertex -79.6265 88.4342 10
      vertex -96.273 69.9464 10
    endloop
  endfacet
  facet normal 0.743145 -0.669131 0
    outer loop
      vertex -96.273 69.9464 0
      vertex -79.6265 88.4342 0
      vertex -96.273 69.9464 10
    endloop
  endfacet
  facet normal 0.587785 -0.809017 0
    outer loop
      vertex -59.5 103.057 0
      vertex -59.5 103.057 10
      vertex -79.6265 88.4342 10
    endloop
  endfacet
  facet normal 0.587785 -0.809017 0
    outer loop
      vertex -79.6265 88.4342 0
      vertex -59.5 103.057 0
      vertex -79.6265 88.4342 10
    endloop
  endfacet
  facet normal 0.406737 -0.913545 0
    outer loop
      vertex -36.773 113.176 0
      vertex -36.773 113.176 10
      vertex -59.5 103.057 10
    endloop
  endfacet
  facet normal 0.406737 -0.913545 0
    outer loop
      vertex -59.5 103.057 0
      vertex -36.773 113.176 0
      vertex -59.5 103.057 10
    endloop
  endfacet
  facet normal 0.207912 -0.978148 0
    outer loop
      vertex -12.4389 118.348 0
      vertex -12.4389 118.348 10
      vertex -36.773 113.176 10
    endloop
  endfacet
  facet normal 0.207912 -0.978148 0
    outer loop
      vertex -36.773 113.176 0
      vertex -12.4389 118.348 0
      vertex -36.773 113.176 10
    endloop
  endfacet
  facet normal 0 -1 0
    outer loop
      vertex 12.4389 118.348 0
      vertex 12.4389 118.348 10
      vertex -12.4389 118.348 10
    endloop
  endfacet
  facet normal -0 -1 -0
    outer loop
      vertex -12.4389 118.348 0
      vertex 12.4389 118.348 0
      vertex -12.4389 118.348 10
    endloop
  endfacet
  facet normal -0.207912 -0.978148 -0
    outer loop
      vertex 36.773 113.176 0
      vertex 36.773 113.176 10
      vertex 12.4389 118.348 10
    endloop
  endfacet
  facet normal -0.207912 -0.978148 -0
    outer loop
      vertex 12.4389 118.348 0
      vertex 36.773 113.176 0
      vertex 12.4389 118.348 10
    endloop
  endfacet
  facet normal -0.406737 -0.913545 -0
    outer loop
      vertex 59.5 103.057 0
      vertex 59.5 103.057 10
      vertex 36.773 113.176 10
    endloop
  endfacet
  facet normal -0.406737 -0.913545 -0
    outer loop
      vertex 36.773 113.176 0
      vertex 59.5 103.057 0
      vertex 36.773 113.176 10
    endloop
  endfacet
  facet normal -0.587785 -0.809017 -0
    outer loop
      vertex 79.6265 88.4342 0
      vertex 79.6265 88.4342 10
      vertex 59.5 103.057 10
    endloop
  endfacet
  facet normal -0.587785 -0.809017 -0
    outer loop
      vertex 59.5 103.057 0
      vertex 79.6265 88.4342 0
      vertex 59.5 103.057 10
    endloop
  endfacet
  facet normal -0.743145 -0.669131 0
    outer loop
      vertex 96.273 69.9464 10
      vertex 79.6265 88.4342 10
      vertex 96.273 69.9464 0
    endloop
  endfacet
  facet normal -0.743145 -0.669131 0
    outer loop
      vertex 96.273 69.9464 0
      vertex 79.6265 88.4342 10
      vertex 79.6265 88.4342 0
    endloop
  endfacet
  facet normal -0.866025 -0.5 0
    outer loop
      vertex 108.712 48.4017 10
      vertex 96.273 69.9464 10
      vertex 108.712 48.4017 0
    endloop
  endfacet
  facet normal -0.866025 -0.5 0
    outer loop
      vertex 108.712 48.4017 0
      vertex 96.273 69.9464 10
      vertex 96.273 69.9464 0
    endloop
  endfacet
  facet normal -0.951057 -0.309017 0
    outer loop
      vertex 116.4 24.7415 10
      vertex 108.712 48.4017 10
      vertex 116.4 24.7415 0
    endloop
  endfacet
  facet normal -0.951057 -0.309017 0
    outer loop
      vertex 116.4 24.7415 0
      vertex 108.712 48.4017 10
      vertex 108.712 48.4017 0
    endloop
  endfacet
  facet normal -0.994522 -0.104528 0
    outer loop
      vertex 119 0 10
      vertex 116.4 24.7415 10
      vertex 119 0 0
    endloop
  endfacet
  facet normal -0.994522 -0.104528 0
    outer loop
      vertex 119 0 0
      vertex 116.4 24.7415 10
      vertex 116.4 24.7415 0
    endloop
  endfacet
  facet normal -0.994522 0.104528 0
    outer loop
      vertex 119 0 10
      vertex 119 0 0
      vertex 116.4 -24.7415 10
    endloop
  endfacet
  facet normal -0.994522 0.104528 0
    outer loop
      vertex 116.4 -24.7415 10
      vertex 119 0 0
      vertex 116.4 -24.7415 0
    endloop
  endfacet
  facet normal -0.951057 0.309017 0
    outer loop
      vertex 116.4 -24.7415 10
      vertex 116.4 -24.7415 0
      vertex 108.712 -48.4017 10
    endloop
  endfacet
  facet normal -0.951057 0.309017 0
    outer loop
      vertex 108.712 -48.4017 10
      vertex 116.4 -24.7415 0
      vertex 108.712 -48.4017 0
    endloop
  endfacet
  facet normal -0.866025 0.5 0
    outer loop
      vertex 108.712 -48.4017 10
      vertex 108.712 -48.4017 0
      vertex 96.273 -69.9464 10
    endloop
  endfacet
  facet normal -0.866025 0.5 0
    outer loop
      vertex 96.273 -69.9464 10
      vertex 108.712 -48.4017 0
      vertex 96.273 -69.9464 0
    endloop
  endfacet
  facet normal -0.743145 0.669131 0
    outer loop
      vertex 96.273 -69.9464 10
      vertex 96.273 -69.9464 0
      vertex 79.6265 -88.4342 10
    endloop
  endfacet
  facet normal -0.743145 0.669131 0
    outer loop
      vertex 79.6265 -88.4342 10
      vertex 96.273 -69.9464 0
      vertex 79.6265 -88.4342 0
    endloop
  endfacet
  facet normal -0.587785 0.809017 0
    outer loop
      vertex 79.6265 -88.4342 10
      vertex 79.6265 -88.4342 0
      vertex 59.5 -103.057 10
    endloop
  endfacet
  facet normal -0.587785 0.809017 0
    outer loop
      vertex 59.5 -103.057 10
      vertex 79.6265 -88.4342 0
      vertex 59.5 -103.057 0
    endloop
  endfacet
  facet normal -0.406737 0.913545 0
    outer loop
      vertex 59.5 -103.057 10
      vertex 59.5 -103.057 0
      vertex 36.773 -113.176 10
    endloop
  endfacet
  facet normal -0.406737 0.913545 0
    outer loop
      vertex 36.773 -113.176 10
      vertex 59.5 -103.057 0
      vertex 36.773 -113.176 0
    endloop
  endfacet
  facet normal -0.207912 0.978148 0
    outer loop
      vertex 36.773 -113.176 10
      vertex 36.773 -113.176 0
      vertex 12.4389 -118.348 10
    endloop
  endfacet
  facet normal -0.207912 0.978148 0
    outer loop
      vertex 12.4389 -118.348 10
      vertex 36.773 -113.176 0
      vertex 12.4389 -118.348 0
    endloop
  endfacet
  facet normal 0 1 0
    outer loop
      vertex 12.4389 -118.348 10
      vertex 12.4389 -118.348 0
      vertex -12.4389 -118.348 10
    endloop
  endfacet
  facet normal 0 1 -0
    outer loop
      vertex -12.4389 -118.348 10
      vertex 12.4389 -118.348 0
      vertex -12.4389 -118.348 0
    endloop
  endfacet
  facet normal 0.207912 0.978148 -0
    outer loop
      vertex -12.4389 -118.348 10
      vertex -12.4389 -118.348 0
      vertex -36.773 -113.176 10
    endloop
  endfacet
  facet normal 0.207912 0.978148 -0
    outer loop
      vertex -36.773 -113.176 10
      vertex -12.4389 -118.348 0
      vertex -36.773 -113.176 0
    endloop
  endfacet
  facet normal 0.406737 0.913545 -0
    outer loop
      vertex -36.773 -113.176 10
      vertex -36.773 -113.176 0
      vertex -59.5 -103.057 10
    endloop
  endfacet
  facet normal 0.406737 0.913545 -0
    outer loop
      vertex -59.5 -103.057 10
      vertex -36.773 -113.176 0
      vertex -59.5 -103.057 0
    endloop
  endfacet
  facet normal 0.587785 0.809017 -0
    outer loop
      vertex -59.5 -103.057 10
      vertex -59.5 -103.057 0
      vertex -79.6265 -88.4342 10
    endloop
  endfacet
  facet normal 0.587785 0.809017 -0
    outer loop
      vertex -79.6265 -88.4342 10
      vertex -59.5 -103.057 0
      vertex -79.6265 -88.4342 0
    endloop
  endfacet
  facet normal 0.743145 0.669131 0
    outer loop
      vertex -96.273 -69.9464 10
      vertex -79.6265 -88.4342 10
      vertex -79.6265 -88.4342 0
    endloop
  endfacet
  facet normal 0.743145 0.669131 0
    outer loop
      vertex -96.273 -69.9464 0
      vertex -96.273 -69.9464 10
      vertex -79.6265 -88.4342 0
    endloop
  endfacet
  facet normal 0.866025 0.5 0
    outer loop
      vertex -108.712 -48.4017 10
      vertex -96.273 -69.9464 10
      vertex -96.273 -69.9464 0
    endloop
  endfacet
  facet normal 0.866025 0.5 0
    outer loop
      vertex -108.712 -48.4017 0
      vertex -108.712 -48.4017 10
      vertex -96.273 -69.9464 0
    endloop
  endfacet
  facet normal 0.951057 0.309017 0
    outer loop
      vertex -116.4 -24.7415 10
      vertex -108.712 -48.4017 10
      vertex -108.712 -48.4017 0
    endloop
  endfacet
  facet normal 0.951057 0.309017 0
    outer loop
      vertex -116.4 -24.7415 0
      vertex -116.4 -24.7415 10
      vertex -108.712 -48.4017 0
    endloop
  endfacet
  facet normal 0 -0 1
    outer loop
      vertex -119 0 10
      vertex -120 0 10
      vertex -117.378 -24.9494 10
    endloop
  endfacet
  facet normal -0 0 1
    outer loop
      vertex -116.4 -24.7415 10
      vertex -119 0 10
      vertex -117.378 -24.9494 10
    endloop
  endfacet
  facet normal 0 -0 1
    outer loop
      vertex 79.6265 -88.4342 10
      vertex 59.5 -103.057 10
      vertex 80.2957 -89.1774 10
    endloop
  endfacet
  facet normal 0 0 1
    outer loop
      vertex -108.712 48.4017 10
      vertex -96.273 69.9464 10
      vertex -97.082 70.5342 10
    endloop
  endfacet
  facet normal 0 0 1
    outer loop
      vertex -109.625 -48.8084 10
      vertex -116.4 -24.7415 10
      vertex -117.378 -24.9494 10
    endloop
  endfacet
  facet normal 0 -0 1
    outer loop
      vertex 116.4 -24.7415 10
      vertex 108.712 -48.4017 10
      vertex 117.378 -24.9494 10
    endloop
  endfacet
  facet normal 0 0 1
    outer loop
      vertex -117.378 24.9494 10
      vertex -120 0 10
      vertex -119 0 10
    endloop
  endfacet
  facet normal 0 -0 1
    outer loop
      vertex 96.273 -69.9464 10
      vertex 79.6265 -88.4342 10
      vertex 97.082 -70.5342 10
    endloop
  endfacet
  facet normal 0 0 1
    outer loop
      vertex -109.625 48.8084 10
      vertex -108.712 48.4017 10
      vertex -97.082 70.5342 10
    endloop
  endfacet
  facet normal 0 -0 1
    outer loop
      vertex -109.625 48.8084 10
      vertex -117.378 24.9494 10
      vertex -108.712 48.4017 10
    endloop
  endfacet
  facet normal 0 0 1
    outer loop
      vertex -97.082 70.5342 10
      vertex -96.273 69.9464 10
      vertex -80.2957 89.1774 10
    endloop
  endfacet
  facet normal 0 0 1
    outer loop
      vertex -96.273 69.9464 10
      vertex -79.6265 88.4342 10
      vertex -80.2957 89.1774 10
    endloop
  endfacet
  facet normal 0 0 1
    outer loop
      vertex -80.2957 89.1774 10
      vertex -79.6265 88.4342 10
      vertex -60 103.923 10
    endloop
  endfacet
  facet normal 0 0 1
    outer loop
      vertex -60 103.923 10
      vertex -59.5 103.057 10
      vertex -37.082 114.127 10
    endloop
  endfacet
  facet normal 0 0 1
    outer loop
      vertex -37.082 114.127 10
      vertex -36.773 113.176 10
      vertex -12.5434 119.343 10
    endloop
  endfacet
  facet normal 0 0 1
    outer loop
      vertex -12.5434 119.343 10
      vertex -12.4389 118.348 10
      vertex 12.5434 119.343 10
    endloop
  endfacet
  facet normal 0 -0 1
    outer loop
      vertex 12.5434 119.343 10
      vertex 12.4389 118.348 10
      vertex 37.082 114.127 10
    endloop
  endfacet
  facet normal 0 -0 1
    outer loop
      vertex 37.082 114.127 10
      vertex 36.773 113.176 10
      vertex 60 103.923 10
    endloop
  endfacet
  facet normal 0 -0 1
    outer loop
      vertex 60 103.923 10
      vertex 59.5 103.057 10
      vertex 80.2957 89.1774 10
    endloop
  endfacet
  facet normal 0 -0 1
    outer loop
      vertex 80.2957 89.1774 10
      vertex 79.6265 88.4342 10
      vertex 97.082 70.5342 10
    endloop
  endfacet
  facet normal 0 -0 1
    outer loop
      vertex 97.082 70.5342 10
      vertex 96.273 69.9464 10
      vertex 109.625 48.8084 10
    endloop
  endfacet
  facet normal 0 -0 1
    outer loop
      vertex 109.625 48.8084 10
      vertex 108.712 48.4017 10
      vertex 117.378 24.9494 10
    endloop
  endfacet
  facet normal 0 -0 1
    outer loop
      vertex 117.378 24.9494 10
      vertex 116.4 24.7415 10
      vertex 120 0 10
    endloop
  endfacet
  facet normal 0 0 1
    outer loop
      vertex 120 0 10
      vertex 119 0 10
      vertex 117.378 -24.9494 10
    endloop
  endfacet
  facet normal 0 0 1
    outer loop
      vertex 119 0 10
      vertex 116.4 -24.7415 10
      vertex 117.378 -24.9494 10
    endloop
  endfacet
  facet normal 0 0 1
    outer loop
      vertex 117.378 -24.9494 10
      vertex 108.712 -48.4017 10
      vertex 109.625 -48.8084 10
    endloop
  endfacet
  facet normal 0 0 1
    outer loop
      vertex 109.625 -48.8084 10
      vertex 96.273 -69.9464 10
      vertex 97.082 -70.5342 10
    endloop
  endfacet
  facet normal 0 0 1
    outer loop
      vertex -79.6265 88.4342 10
      vertex -59.5 103.057 10
      vertex -60 103.923 10
    endloop
  endfacet
  facet normal 0 0 1
    outer loop
      vertex 97.082 -70.5342 10
      vertex 79.6265 -88.4342 10
      vertex 80.2957 -89.1774 10
    endloop
  endfacet
  facet normal 0 0 1
    outer loop
      vertex -59.5 103.057 10
      vertex -36.773 113.176 10
      vertex -37.082 114.127 10
    endloop
  endfacet
  facet normal 0 0 1
    outer loop
      vertex 80.2957 -89.1774 10
      vertex 59.5 -103.057 10
      vertex 60 -103.923 10
    endloop
  endfacet
  facet normal 0 0 1
    outer loop
      vertex -36.773 113.176 10
      vertex -12.4389 118.348 10
      vertex -12.5434 119.343 10
    endloop
  endfacet
  facet normal 0 0 1
    outer loop
      vertex 60 -103.923 10
      vertex 36.773 -113.176 10
      vertex 37.082 -114.127 10
    endloop
  endfacet
  facet normal 0 0 1
    outer loop
      vertex -12.4389 118.348 10
      vertex 12.4389 118.348 10
      vertex 12.5434 119.343 10
    endloop
  endfacet
  facet normal 0 0 1
    outer loop
      vertex 37.082 -114.127 10
      vertex 12.4389 -118.348 10
      vertex 12.5434 -119.343 10
    endloop
  endfacet
  facet normal 0 0 1
    outer loop
      vertex 12.4389 118.348 10
      vertex 36.773 113.176 10
      vertex 37.082 114.127 10
    endloop
  endfacet
  facet normal -0 0 1
    outer loop
      vertex 12.5434 -119.343 10
      vertex -12.4389 -118.348 10
      vertex -12.5434 -119.343 10
    endloop
  endfacet
  facet normal 0 0 1
    outer loop
      vertex 36.773 113.176 10
      vertex 59.5 103.057 10
      vertex 60 103.923 10
    endloop
  endfacet
  facet normal 0 0 1
    outer loop
      vertex -12.5434 -119.343 10
      vertex -36.773 -113.176 10
      vertex -37.082 -114.127 10
    endloop
  endfacet
  facet normal 0 0 1
    outer loop
      vertex 59.5 103.057 10
      vertex 79.6265 88.4342 10
      vertex 80.2957 89.1774 10
    endloop
  endfacet
  facet normal 0 0 1
    outer loop
      vertex -37.082 -114.127 10
      vertex -59.5 -103.057 10
      vertex -60 -103.923 10
    endloop
  endfacet
  facet normal 0 0 1
    outer loop
      vertex 79.6265 88.4342 10
      vertex 96.273 69.9464 10
      vertex 97.082 70.5342 10
    endloop
  endfacet
  facet normal 0 0 1
    outer loop
      vertex -60 -103.923 10
      vertex -79.6265 -88.4342 10
      vertex -80.2957 -89.1774 10
    endloop
  endfacet
  facet normal 0 0 1
    outer loop
      vertex 96.273 69.9464 10
      vertex 108.712 48.4017 10
      vertex 109.625 48.8084 10
    endloop
  endfacet
  facet normal 0 0 1
    outer loop
      vertex -80.2957 -89.1774 10
      vertex -96.273 -69.9464 10
      vertex -97.082 -70.5342 10
    endloop
  endfacet
  facet normal 0 0 1
    outer loop
      vertex 108.712 48.4017 10
      vertex 116.4 24.7415 10
      vertex 117.378 24.9494 10
    endloop
  endfacet
  facet normal 0 0 1
    outer loop
      vertex -97.082 -70.5342 10
      vertex -108.712 -48.4017 10
      vertex -109.625 -48.8084 10
    endloop
  endfacet
  facet normal 0 0 1
    outer loop
      vertex 116.4 24.7415 10
      vertex 119 0 10
      vertex 120 0 10
    endloop
  endfacet
  facet normal -0 0 1
    outer loop
      vertex -108.712 -48.4017 10
      vertex -116.4 -24.7415 10
      vertex -109.625 -48.8084 10
    endloop
  endfacet
  facet normal 0 -0 1
    outer loop
      vertex 59.5 -103.057 10
      vertex 36.773 -113.176 10
      vertex 60 -103.923 10
    endloop
  endfacet
  facet normal 0 -0 1
    outer loop
      vertex 36.773 -113.176 10
      vertex 12.4389 -118.348 10
      vertex 37.082 -114.127 10
    endloop
  endfacet
  facet normal 0 -0 1
    outer loop
      vertex 12.4389 -118.348 10
      vertex -12.4389 -118.348 10
      vertex 12.5434 -119.343 10
    endloop
  endfacet
  facet normal -0 0 1
    outer loop
      vertex -12.4389 -118.348 10
      vertex -36.773 -113.176 10
      vertex -12.5434 -119.343 10
    endloop
  endfacet
  facet normal -0 0 1
    outer loop
      vertex -36.773 -113.176 10
      vertex -59.5 -103.057 10
      vertex -37.082 -114.127 10
    endloop
  endfacet
  facet normal -0 0 1
    outer loop
      vertex -59.5 -103.057 10
      vertex -79.6265 -88.4342 10
      vertex -60 -103.923 10
    endloop
  endfacet
  facet normal -0 0 1
    outer loop
      vertex -79.6265 -88.4342 10
      vertex -96.273 -69.9464 10
      vertex -80.2957 -89.1774 10
    endloop
  endfacet
  facet normal -0 0 1
    outer loop
      vertex -96.273 -69.9464 10
      vertex -108.712 -48.4017 10
      vertex -97.082 -70.5342 10
    endloop
  endfacet
  facet normal 0 0 1
    outer loop
      vertex -119 0 10
      vertex -116.4 24.7415 10
      vertex -117.378 24.9494 10
    endloop
  endfacet
  facet normal 0 -0 1
    outer loop
      vertex 108.712 -48.4017 10
      vertex 96.273 -69.9464 10
      vertex 109.625 -48.8084 10
    endloop
  endfacet
  facet normal 0 0 1
    outer loop
      vertex -116.4 24.7415 10
      vertex -108.712 48.4017 10
      vertex -117.378 24.9494 10
    endloop
  endfacet
endsolid OpenSCAD_Model
