solid OpenSCAD_Model
  facet normal -0 0 -1
    outer loop
      vertex -10.5396 0 0
      vertex -10.3093 2.19131 0
      vertex -10.3093 -2.19131 0
    endloop
  endfacet
  facet normal 0 -0 -1
    outer loop
      vertex -10.3093 -2.19131 0
      vertex -10.3093 2.19131 0
      vertex -9.6284 4.28684 0
    endloop
  endfacet
  facet normal 0 0 -1
    outer loop
      vertex -10.3093 -2.19131 0
      vertex -9.6284 4.28684 0
      vertex -8.52672 6.19502 0
    endloop
  endfacet
  facet normal 0 0 -1
    outer loop
      vertex -10.3093 -2.19131 0
      vertex -8.52672 6.19502 0
      vertex -7.05237 7.83245 0
    endloop
  endfacet
  facet normal 0 0 -1
    outer loop
      vertex -10.3093 -2.19131 0
      vertex -7.05237 7.83245 0
      vertex -5.2698 9.12756 0
    endloop
  endfacet
  facet normal 0 0 -1
    outer loop
      vertex -10.3093 -2.19131 0
      vertex -5.2698 9.12756 0
      vertex -3.25692 10.0238 0
    endloop
  endfacet
  facet normal 0 0 -1
    outer loop
      vertex -10.3093 -2.19131 0
      vertex -3.25692 10.0238 0
      vertex -1.10169 10.4819 0
    endloop
  endfacet
  facet normal 0 0 -1
    outer loop
      vertex -10.3093 -2.19131 0
      vertex -1.10169 10.4819 0
      vertex 1.10169 10.4819 0
    endloop
  endfacet
  facet normal 0 0 -1
    outer loop
      vertex -10.3093 -2.19131 0
      vertex 1.10169 10.4819 0
      vertex 3.25692 10.0238 0
    endloop
  endfacet
  facet normal 0 0 -1
    outer loop
      vertex -10.3093 -2.19131 0
      vertex 3.25692 10.0238 0
      vertex 5.2698 9.12756 0
    endloop
  endfacet
  facet normal 0 0 -1
    outer loop
      vertex -10.3093 -2.19131 0
      vertex 5.2698 9.12756 0
      vertex 7.05237 7.83245 0
    endloop
  endfacet
  facet normal 0 0 -1
    outer loop
      vertex -10.3093 -2.19131 0
      vertex 7.05237 7.83245 0
      vertex 8.52672 6.19502 0
    endloop
  endfacet
  facet normal 0 0 -1
    outer loop
      vertex -10.3093 -2.19131 0
      vertex 8.52672 6.19502 0
      vertex 9.6284 4.28684 0
    endloop
  endfacet
  facet normal 0 0 -1
    outer loop
      vertex -10.3093 -2.19131 0
      vertex 9.6284 4.28684 0
      vertex 10.3093 2.19131 0
    endloop
  endfacet
  facet normal 0 0 -1
    outer loop
      vertex -10.3093 -2.19131 0
      vertex 10.3093 2.19131 0
      vertex 10.5396 0 0
    endloop
  endfacet
  facet normal -0 0 -1
    outer loop
      vertex -10.3093 -2.19131 0
      vertex 10.5396 0 0
      vertex 10.3093 -2.19131 0
    endloop
  endfacet
  facet normal 0 0 -1
    outer loop
      vertex -10.3093 -2.19131 0
      vertex 10.3093 -2.19131 0
      vertex 9.6284 -4.28684 0
    endloop
  endfacet
  facet normal 0 0 -1
    outer loop
      vertex -10.3093 -2.19131 0
      vertex 9.6284 -4.28684 0
      vertex 8.52672 -6.19502 0
    endloop
  endfacet
  facet normal 0 0 -1
    outer loop
      vertex -10.3093 -2.19131 0
      vertex 8.52672 -6.19502 0
      vertex 7.05237 -7.83245 0
    endloop
  endfacet
  facet normal 0 0 -1
    outer loop
      vertex -10.3093 -2.19131 0
      vertex 7.05237 -7.83245 0
      vertex 5.2698 -9.12756 0
    endloop
  endfacet
  facet normal 0 0 -1
    outer loop
      vertex -10.3093 -2.19131 0
      vertex 5.2698 -9.12756 0
      vertex 3.25692 -10.0238 0
    endloop
  endfacet
  facet normal 0 0 -1
    outer loop
      vertex -10.3093 -2.19131 0
      vertex 3.25692 -10.0238 0
      vertex 1.10169 -10.4819 0
    endloop
  endfacet
  facet normal 0 0 -1
    outer loop
      vertex -10.3093 -2.19131 0
      vertex 1.10169 -10.4819 0
      vertex -1.10169 -10.4819 0
    endloop
  endfacet
  facet normal 0 0 -1
    outer loop
      vertex -10.3093 -2.19131 0
      vertex -1.10169 -10.4819 0
      vertex -3.25692 -10.0238 0
    endloop
  endfacet
  facet normal 0 0 -1
    outer loop
      vertex -10.3093 -2.19131 0
      vertex -3.25692 -10.0238 0
      vertex -5.2698 -9.12756 0
    endloop
  endfacet
  facet normal 0 0 -1
    outer loop
      vertex -10.3093 -2.19131 0
      vertex -5.2698 -9.12756 0
      vertex -7.05237 -7.83245 0
    endloop
  endfacet
  facet normal 0 0 -1
    outer loop
      vertex -10.3093 -2.19131 0
      vertex -7.05237 -7.83245 0
      vertex -8.52672 -6.19502 0
    endloop
  endfacet
  facet normal 0 0 -1
    outer loop
      vertex -10.3093 -2.19131 0
      vertex -8.52672 -6.19502 0
      vertex -9.6284 -4.28684 0
    endloop
  endfacet
  facet normal -0.994522 0.104529 0
    outer loop
      vertex -10.5396 0 0
      vertex -10.5396 0 1
      vertex -10.3093 2.19131 0
    endloop
  endfacet
  facet normal -0.994522 0.104529 0
    outer loop
      vertex -10.3093 2.19131 0
      vertex -10.5396 0 1
      vertex -10.3093 2.19131 1
    endloop
  endfacet
  facet normal -0.994522 -0.104529 -0
    outer loop
      vertex -10.5396 0 0
      vertex -10.3093 -2.19131 0
      vertex -10.5396 0 1
    endloop
  endfacet
  facet normal -0.994522 -0.104529 0
    outer loop
      vertex -10.5396 0 1
      vertex -10.3093 -2.19131 0
      vertex -10.3093 -2.19131 1
    endloop
  endfacet
  facet normal -0.951057 -0.309017 -0
    outer loop
      vertex -10.3093 -2.19131 0
      vertex -9.6284 -4.28684 0
      vertex -10.3093 -2.19131 1
    endloop
  endfacet
  facet normal -0.951057 -0.309017 0
    outer loop
      vertex -10.3093 -2.19131 1
      vertex -9.6284 -4.28684 0
      vertex -9.6284 -4.28684 1
    endloop
  endfacet
  facet normal -0.866025 -0.5 -0
    outer loop
      vertex -9.6284 -4.28684 0
      vertex -8.52672 -6.19502 0
      vertex -9.6284 -4.28684 1
    endloop
  endfacet
  facet normal -0.866025 -0.5 0
    outer loop
      vertex -9.6284 -4.28684 1
      vertex -8.52672 -6.19502 0
      vertex -8.52672 -6.19502 1
    endloop
  endfacet
  facet normal -0.743145 -0.669131 -0
    outer loop
      vertex -8.52672 -6.19502 0
      vertex -7.05237 -7.83245 0
      vertex -8.52672 -6.19502 1
    endloop
  endfacet
  facet normal -0.743145 -0.669131 0
    outer loop
      vertex -8.52672 -6.19502 1
      vertex -7.05237 -7.83245 0
      vertex -7.05237 -7.83245 1
    endloop
  endfacet
  facet normal -0.587785 -0.809017 0
    outer loop
      vertex -7.05237 -7.83245 1
      vertex -7.05237 -7.83245 0
      vertex -5.2698 -9.12756 0
    endloop
  endfacet
  facet normal -0.587785 -0.809017 0
    outer loop
      vertex -5.2698 -9.12756 1
      vertex -7.05237 -7.83245 1
      vertex -5.2698 -9.12756 0
    endloop
  endfacet
  facet normal -0.406737 -0.913545 0
    outer loop
      vertex -5.2698 -9.12756 1
      vertex -5.2698 -9.12756 0
      vertex -3.25692 -10.0238 0
    endloop
  endfacet
  facet normal -0.406737 -0.913545 0
    outer loop
      vertex -3.25692 -10.0238 1
      vertex -5.2698 -9.12756 1
      vertex -3.25692 -10.0238 0
    endloop
  endfacet
  facet normal -0.207912 -0.978148 0
    outer loop
      vertex -3.25692 -10.0238 1
      vertex -3.25692 -10.0238 0
      vertex -1.10169 -10.4819 0
    endloop
  endfacet
  facet normal -0.207912 -0.978148 0
    outer loop
      vertex -1.10169 -10.4819 1
      vertex -3.25692 -10.0238 1
      vertex -1.10169 -10.4819 0
    endloop
  endfacet
  facet normal 0 -1 0
    outer loop
      vertex -1.10169 -10.4819 1
      vertex -1.10169 -10.4819 0
      vertex 1.10169 -10.4819 0
    endloop
  endfacet
  facet normal 0 -1 0
    outer loop
      vertex 1.10169 -10.4819 1
      vertex -1.10169 -10.4819 1
      vertex 1.10169 -10.4819 0
    endloop
  endfacet
  facet normal 0.207912 -0.978148 0
    outer loop
      vertex 1.10169 -10.4819 1
      vertex 1.10169 -10.4819 0
      vertex 3.25692 -10.0238 0
    endloop
  endfacet
  facet normal 0.207912 -0.978148 0
    outer loop
      vertex 3.25692 -10.0238 1
      vertex 1.10169 -10.4819 1
      vertex 3.25692 -10.0238 0
    endloop
  endfacet
  facet normal 0.406737 -0.913545 0
    outer loop
      vertex 3.25692 -10.0238 1
      vertex 3.25692 -10.0238 0
      vertex 5.2698 -9.12756 0
    endloop
  endfacet
  facet normal 0.406737 -0.913545 0
    outer loop
      vertex 5.2698 -9.12756 1
      vertex 3.25692 -10.0238 1
      vertex 5.2698 -9.12756 0
    endloop
  endfacet
  facet normal 0.587785 -0.809017 0
    outer loop
      vertex 5.2698 -9.12756 1
      vertex 5.2698 -9.12756 0
      vertex 7.05237 -7.83245 0
    endloop
  endfacet
  facet normal 0.587785 -0.809017 0
    outer loop
      vertex 7.05237 -7.83245 1
      vertex 5.2698 -9.12756 1
      vertex 7.05237 -7.83245 0
    endloop
  endfacet
  facet normal 0.743145 -0.669131 0
    outer loop
      vertex 7.05237 -7.83245 1
      vertex 7.05237 -7.83245 0
      vertex 8.52672 -6.19502 0
    endloop
  endfacet
  facet normal 0.743145 -0.669131 0
    outer loop
      vertex 8.52672 -6.19502 1
      vertex 7.05237 -7.83245 1
      vertex 8.52672 -6.19502 0
    endloop
  endfacet
  facet normal 0.866025 -0.5 0
    outer loop
      vertex 8.52672 -6.19502 1
      vertex 8.52672 -6.19502 0
      vertex 9.6284 -4.28684 0
    endloop
  endfacet
  facet normal 0.866025 -0.5 0
    outer loop
      vertex 9.6284 -4.28684 1
      vertex 8.52672 -6.19502 1
      vertex 9.6284 -4.28684 0
    endloop
  endfacet
  facet normal 0.951057 -0.309017 0
    outer loop
      vertex 9.6284 -4.28684 1
      vertex 9.6284 -4.28684 0
      vertex 10.3093 -2.19131 0
    endloop
  endfacet
  facet normal 0.951057 -0.309017 0
    outer loop
      vertex 10.3093 -2.19131 1
      vertex 9.6284 -4.28684 1
      vertex 10.3093 -2.19131 0
    endloop
  endfacet
  facet normal 0.994522 -0.104529 0
    outer loop
      vertex 10.3093 -2.19131 1
      vertex 10.3093 -2.19131 0
      vertex 10.5396 0 0
    endloop
  endfacet
  facet normal 0.994522 -0.104529 0
    outer loop
      vertex 10.5396 0 1
      vertex 10.3093 -2.19131 1
      vertex 10.5396 0 0
    endloop
  endfacet
  facet normal 0.994522 0.104529 0
    outer loop
      vertex 10.5396 0 0
      vertex 10.3093 2.19131 0
      vertex 10.3093 2.19131 1
    endloop
  endfacet
  facet normal 0.994522 0.104529 -0
    outer loop
      vertex 10.5396 0 1
      vertex 10.5396 0 0
      vertex 10.3093 2.19131 1
    endloop
  endfacet
  facet normal 0.951057 0.309017 0
    outer loop
      vertex 10.3093 2.19131 0
      vertex 9.6284 4.28684 0
      vertex 9.6284 4.28684 1
    endloop
  endfacet
  facet normal 0.951057 0.309017 -0
    outer loop
      vertex 10.3093 2.19131 1
      vertex 10.3093 2.19131 0
      vertex 9.6284 4.28684 1
    endloop
  endfacet
  facet normal 0.866025 0.5 0
    outer loop
      vertex 9.6284 4.28684 0
      vertex 8.52672 6.19502 0
      vertex 8.52672 6.19502 1
    endloop
  endfacet
  facet normal 0.866025 0.5 -0
    outer loop
      vertex 9.6284 4.28684 1
      vertex 9.6284 4.28684 0
      vertex 8.52672 6.19502 1
    endloop
  endfacet
  facet normal 0.743145 0.669131 0
    outer loop
      vertex 8.52672 6.19502 0
      vertex 7.05237 7.83245 0
      vertex 7.05237 7.83245 1
    endloop
  endfacet
  facet normal 0.743145 0.669131 -0
    outer loop
      vertex 8.52672 6.19502 1
      vertex 8.52672 6.19502 0
      vertex 7.05237 7.83245 1
    endloop
  endfacet
  facet normal 0.587785 0.809017 0
    outer loop
      vertex 5.2698 9.12756 0
      vertex 5.2698 9.12756 1
      vertex 7.05237 7.83245 0
    endloop
  endfacet
  facet normal 0.587785 0.809017 0
    outer loop
      vertex 7.05237 7.83245 0
      vertex 5.2698 9.12756 1
      vertex 7.05237 7.83245 1
    endloop
  endfacet
  facet normal 0.406737 0.913545 0
    outer loop
      vertex 3.25692 10.0238 0
      vertex 3.25692 10.0238 1
      vertex 5.2698 9.12756 0
    endloop
  endfacet
  facet normal 0.406737 0.913545 0
    outer loop
      vertex 5.2698 9.12756 0
      vertex 3.25692 10.0238 1
      vertex 5.2698 9.12756 1
    endloop
  endfacet
  facet normal 0.207912 0.978148 0
    outer loop
      vertex 1.10169 10.4819 0
      vertex 1.10169 10.4819 1
      vertex 3.25692 10.0238 0
    endloop
  endfacet
  facet normal 0.207912 0.978148 0
    outer loop
      vertex 3.25692 10.0238 0
      vertex 1.10169 10.4819 1
      vertex 3.25692 10.0238 1
    endloop
  endfacet
  facet normal 0 1 0
    outer loop
      vertex -1.10169 10.4819 0
      vertex -1.10169 10.4819 1
      vertex 1.10169 10.4819 0
    endloop
  endfacet
  facet normal 0 1 0
    outer loop
      vertex 1.10169 10.4819 0
      vertex -1.10169 10.4819 1
      vertex 1.10169 10.4819 1
    endloop
  endfacet
  facet normal -0.207912 0.978148 0
    outer loop
      vertex -3.25692 10.0238 0
      vertex -3.25692 10.0238 1
      vertex -1.10169 10.4819 0
    endloop
  endfacet
  facet normal -0.207912 0.978148 0
    outer loop
      vertex -1.10169 10.4819 0
      vertex -3.25692 10.0238 1
      vertex -1.10169 10.4819 1
    endloop
  endfacet
  facet normal -0.406737 0.913545 0
    outer loop
      vertex -5.2698 9.12756 0
      vertex -5.2698 9.12756 1
      vertex -3.25692 10.0238 0
    endloop
  endfacet
  facet normal -0.406737 0.913545 0
    outer loop
      vertex -3.25692 10.0238 0
      vertex -5.2698 9.12756 1
      vertex -3.25692 10.0238 1
    endloop
  endfacet
  facet normal -0.587785 0.809017 0
    outer loop
      vertex -7.05237 7.83245 0
      vertex -7.05237 7.83245 1
      vertex -5.2698 9.12756 0
    endloop
  endfacet
  facet normal -0.587785 0.809017 0
    outer loop
      vertex -5.2698 9.12756 0
      vertex -7.05237 7.83245 1
      vertex -5.2698 9.12756 1
    endloop
  endfacet
  facet normal -0.743145 0.669131 0
    outer loop
      vertex -8.52672 6.19502 0
      vertex -8.52672 6.19502 1
      vertex -7.05237 7.83245 0
    endloop
  endfacet
  facet normal -0.743145 0.669131 0
    outer loop
      vertex -7.05237 7.83245 0
      vertex -8.52672 6.19502 1
      vertex -7.05237 7.83245 1
    endloop
  endfacet
  facet normal -0.866025 0.5 0
    outer loop
      vertex -9.6284 4.28684 0
      vertex -9.6284 4.28684 1
      vertex -8.52672 6.19502 0
    endloop
  endfacet
  facet normal -0.866025 0.5 0
    outer loop
      vertex -8.52672 6.19502 0
      vertex -9.6284 4.28684 1
      vertex -8.52672 6.19502 1
    endloop
  endfacet
  facet normal -0.951057 0.309017 0
    outer loop
      vertex -10.3093 2.19131 0
      vertex -10.3093 2.19131 1
      vertex -9.6284 4.28684 0
    endloop
  endfacet
  facet normal -0.951057 0.309017 0
    outer loop
      vertex -9.6284 4.28684 0
      vertex -10.3093 2.19131 1
      vertex -9.6284 4.28684 1
    endloop
  endfacet
  facet normal 0 0 1
    outer loop
      vertex -10.3093 2.19131 1
      vertex -10.5396 0 1
      vertex -10.3093 -2.19131 1
    endloop
  endfacet
  facet normal 0 0 1
    outer loop
      vertex -8.52672 -6.19502 1
      vertex -10.3093 2.19131 1
      vertex -9.6284 -4.28684 1
    endloop
  endfacet
  facet normal 0 0 1
    outer loop
      vertex -9.6284 -4.28684 1
      vertex -10.3093 2.19131 1
      vertex -10.3093 -2.19131 1
    endloop
  endfacet
  facet normal 0 0 1
    outer loop
      vertex -7.05237 -7.83245 1
      vertex -10.3093 2.19131 1
      vertex -8.52672 -6.19502 1
    endloop
  endfacet
  facet normal 0 0 1
    outer loop
      vertex -5.2698 -9.12756 1
      vertex -10.3093 2.19131 1
      vertex -7.05237 -7.83245 1
    endloop
  endfacet
  facet normal 0 0 1
    outer loop
      vertex -3.25692 -10.0238 1
      vertex -10.3093 2.19131 1
      vertex -5.2698 -9.12756 1
    endloop
  endfacet
  facet normal -0 -0 1
    outer loop
      vertex -6.52948 -3.7698 1
      vertex -10.3093 2.19131 1
      vertex -3.25692 -10.0238 1
    endloop
  endfacet
  facet normal 0 0 1
    outer loop
      vertex 7.28269 1.95139 1
      vertex 7.5396 0 1
      vertex 10.5396 0 1
    endloop
  endfacet
  facet normal 0 0 1
    outer loop
      vertex 1.95139 7.28269 1
      vertex 3.7698 6.52948 1
      vertex 7.05237 7.83245 1
    endloop
  endfacet
  facet normal 0 0 1
    outer loop
      vertex 0 7.5396 1
      vertex 1.95139 7.28269 1
      vertex 5.2698 9.12756 1
    endloop
  endfacet
  facet normal 0 -0 1
    outer loop
      vertex -1.10169 10.4819 1
      vertex -10.3093 2.19131 1
      vertex 1.10169 10.4819 1
    endloop
  endfacet
  facet normal 0 -0 1
    outer loop
      vertex -3.25692 10.0238 1
      vertex -10.3093 2.19131 1
      vertex -1.10169 10.4819 1
    endloop
  endfacet
  facet normal 0 -0 1
    outer loop
      vertex -5.2698 9.12756 1
      vertex -10.3093 2.19131 1
      vertex -3.25692 10.0238 1
    endloop
  endfacet
  facet normal 0 -0 1
    outer loop
      vertex -7.05237 7.83245 1
      vertex -10.3093 2.19131 1
      vertex -5.2698 9.12756 1
    endloop
  endfacet
  facet normal 0 -0 1
    outer loop
      vertex -8.52672 6.19502 1
      vertex -10.3093 2.19131 1
      vertex -7.05237 7.83245 1
    endloop
  endfacet
  facet normal 0 -0 1
    outer loop
      vertex -9.6284 4.28684 1
      vertex -10.3093 2.19131 1
      vertex -8.52672 6.19502 1
    endloop
  endfacet
  facet normal -0 -0 1
    outer loop
      vertex 0 -7.5396 1
      vertex -1.95139 -7.28269 1
      vertex 1.10169 -10.4819 1
    endloop
  endfacet
  facet normal 0 -0 1
    outer loop
      vertex 7.5396 0 1
      vertex 7.28269 -1.95139 1
      vertex 10.3093 -2.19131 1
    endloop
  endfacet
  facet normal 0 0 1
    outer loop
      vertex 3.7698 6.52948 1
      vertex 5.3313 5.3313 1
      vertex 8.52672 6.19502 1
    endloop
  endfacet
  facet normal 0 0 1
    outer loop
      vertex 1.10169 10.4819 1
      vertex -10.3093 2.19131 1
      vertex -5.3313 5.3313 1
    endloop
  endfacet
  facet normal 0 -0 1
    outer loop
      vertex 1.10169 10.4819 1
      vertex -3.7698 6.52948 1
      vertex 3.25692 10.0238 1
    endloop
  endfacet
  facet normal 0 0 1
    outer loop
      vertex 1.10169 10.4819 1
      vertex -5.3313 5.3313 1
      vertex -3.7698 6.52948 1
    endloop
  endfacet
  facet normal 0 0 1
    outer loop
      vertex -3.7698 6.52948 1
      vertex -1.95139 7.28269 1
      vertex 3.25692 10.0238 1
    endloop
  endfacet
  facet normal 0 -0 1
    outer loop
      vertex 3.25692 10.0238 1
      vertex 0 7.5396 1
      vertex 5.2698 9.12756 1
    endloop
  endfacet
  facet normal 0 0 1
    outer loop
      vertex -1.95139 7.28269 1
      vertex 0 7.5396 1
      vertex 3.25692 10.0238 1
    endloop
  endfacet
  facet normal 0 -0 1
    outer loop
      vertex 5.2698 9.12756 1
      vertex 1.95139 7.28269 1
      vertex 7.05237 7.83245 1
    endloop
  endfacet
  facet normal 0 -0 1
    outer loop
      vertex 7.05237 7.83245 1
      vertex 3.7698 6.52948 1
      vertex 8.52672 6.19502 1
    endloop
  endfacet
  facet normal 0 0 1
    outer loop
      vertex 6.52948 3.7698 1
      vertex 7.28269 1.95139 1
      vertex 10.3093 2.19131 1
    endloop
  endfacet
  facet normal 0 -0 1
    outer loop
      vertex 8.52672 6.19502 1
      vertex 5.3313 5.3313 1
      vertex 9.6284 4.28684 1
    endloop
  endfacet
  facet normal -0 0 1
    outer loop
      vertex -6.52948 3.7698 1
      vertex -5.3313 5.3313 1
      vertex -10.3093 2.19131 1
    endloop
  endfacet
  facet normal 0 -0 1
    outer loop
      vertex 9.6284 4.28684 1
      vertex 6.52948 3.7698 1
      vertex 10.3093 2.19131 1
    endloop
  endfacet
  facet normal 0 -0 1
    outer loop
      vertex 10.3093 2.19131 1
      vertex 7.28269 1.95139 1
      vertex 10.5396 0 1
    endloop
  endfacet
  facet normal 0 0 1
    outer loop
      vertex 10.5396 0 1
      vertex 7.5396 0 1
      vertex 10.3093 -2.19131 1
    endloop
  endfacet
  facet normal 0 0 1
    outer loop
      vertex 5.3313 5.3313 1
      vertex 6.52948 3.7698 1
      vertex 9.6284 4.28684 1
    endloop
  endfacet
  facet normal -0 0 1
    outer loop
      vertex 10.3093 -2.19131 1
      vertex 7.28269 -1.95139 1
      vertex 9.6284 -4.28684 1
    endloop
  endfacet
  facet normal -0 0 1
    outer loop
      vertex 9.6284 -4.28684 1
      vertex 6.52948 -3.7698 1
      vertex 8.52672 -6.19502 1
    endloop
  endfacet
  facet normal 0 -0 1
    outer loop
      vertex 3.7698 -6.52948 1
      vertex 1.95139 -7.28269 1
      vertex 5.2698 -9.12756 1
    endloop
  endfacet
  facet normal -0 0 1
    outer loop
      vertex 8.52672 -6.19502 1
      vertex 5.3313 -5.3313 1
      vertex 7.05237 -7.83245 1
    endloop
  endfacet
  facet normal 0 0 1
    outer loop
      vertex -7.28269 1.95139 1
      vertex -6.52948 3.7698 1
      vertex -10.3093 2.19131 1
    endloop
  endfacet
  facet normal -0 0 1
    outer loop
      vertex 7.05237 -7.83245 1
      vertex 3.7698 -6.52948 1
      vertex 5.2698 -9.12756 1
    endloop
  endfacet
  facet normal -0 0 1
    outer loop
      vertex 5.2698 -9.12756 1
      vertex 1.95139 -7.28269 1
      vertex 3.25692 -10.0238 1
    endloop
  endfacet
  facet normal -0 0 1
    outer loop
      vertex 3.25692 -10.0238 1
      vertex 0 -7.5396 1
      vertex 1.10169 -10.4819 1
    endloop
  endfacet
  facet normal 0 -0 1
    outer loop
      vertex 7.28269 -1.95139 1
      vertex 6.52948 -3.7698 1
      vertex 9.6284 -4.28684 1
    endloop
  endfacet
  facet normal -0 -0 1
    outer loop
      vertex -3.7698 -6.52948 1
      vertex -5.3313 -5.3313 1
      vertex -1.10169 -10.4819 1
    endloop
  endfacet
  facet normal 0 -0 1
    outer loop
      vertex 6.52948 -3.7698 1
      vertex 5.3313 -5.3313 1
      vertex 8.52672 -6.19502 1
    endloop
  endfacet
  facet normal -0 0 1
    outer loop
      vertex 1.10169 -10.4819 1
      vertex -3.7698 -6.52948 1
      vertex -1.10169 -10.4819 1
    endloop
  endfacet
  facet normal 0 0 1
    outer loop
      vertex -1.10169 -10.4819 1
      vertex -5.3313 -5.3313 1
      vertex -3.25692 -10.0238 1
    endloop
  endfacet
  facet normal -0 -0 1
    outer loop
      vertex -1.95139 -7.28269 1
      vertex -3.7698 -6.52948 1
      vertex 1.10169 -10.4819 1
    endloop
  endfacet
  facet normal -0 -0 1
    outer loop
      vertex -5.3313 -5.3313 1
      vertex -6.52948 -3.7698 1
      vertex -3.25692 -10.0238 1
    endloop
  endfacet
  facet normal 0 0 1
    outer loop
      vertex -6.52948 -3.7698 1
      vertex -7.28269 -1.95139 1
      vertex -10.3093 2.19131 1
    endloop
  endfacet
  facet normal 0 0 1
    outer loop
      vertex -7.28269 -1.95139 1
      vertex -7.5396 0 1
      vertex -10.3093 2.19131 1
    endloop
  endfacet
  facet normal 0 -0 1
    outer loop
      vertex 5.3313 -5.3313 1
      vertex 3.7698 -6.52948 1
      vertex 7.05237 -7.83245 1
    endloop
  endfacet
  facet normal 0 -0 1
    outer loop
      vertex 1.95139 -7.28269 1
      vertex 0 -7.5396 1
      vertex 3.25692 -10.0238 1
    endloop
  endfacet
  facet normal 0 0 1
    outer loop
      vertex -7.5396 0 1
      vertex -7.28269 1.95139 1
      vertex -10.3093 2.19131 1
    endloop
  endfacet
  facet normal -0.991445 -0.130526 -0
    outer loop
      vertex -7.5396 0 1
      vertex -7.28269 -1.95139 1
      vertex -7.5396 0 30
    endloop
  endfacet
  facet normal -0.991445 -0.130526 0
    outer loop
      vertex -7.5396 0 30
      vertex -7.28269 -1.95139 1
      vertex -7.28269 -1.95139 30
    endloop
  endfacet
  facet normal -0.92388 -0.382683 -0
    outer loop
      vertex -7.28269 -1.95139 1
      vertex -6.52948 -3.7698 1
      vertex -7.28269 -1.95139 30
    endloop
  endfacet
  facet normal -0.92388 -0.382683 0
    outer loop
      vertex -7.28269 -1.95139 30
      vertex -6.52948 -3.7698 1
      vertex -6.52948 -3.7698 30
    endloop
  endfacet
  facet normal -0.793353 -0.608762 -0
    outer loop
      vertex -6.52948 -3.7698 1
      vertex -5.3313 -5.3313 1
      vertex -6.52948 -3.7698 30
    endloop
  endfacet
  facet normal -0.793353 -0.608762 0
    outer loop
      vertex -6.52948 -3.7698 30
      vertex -5.3313 -5.3313 1
      vertex -5.3313 -5.3313 30
    endloop
  endfacet
  facet normal -0.608762 -0.793353 0
    outer loop
      vertex -5.3313 -5.3313 30
      vertex -5.3313 -5.3313 1
      vertex -3.7698 -6.52948 1
    endloop
  endfacet
  facet normal -0.608762 -0.793353 0
    outer loop
      vertex -3.7698 -6.52948 30
      vertex -5.3313 -5.3313 30
      vertex -3.7698 -6.52948 1
    endloop
  endfacet
  facet normal -0.382683 -0.92388 0
    outer loop
      vertex -3.7698 -6.52948 30
      vertex -3.7698 -6.52948 1
      vertex -1.95139 -7.28269 1
    endloop
  endfacet
  facet normal -0.382683 -0.92388 0
    outer loop
      vertex -1.95139 -7.28269 30
      vertex -3.7698 -6.52948 30
      vertex -1.95139 -7.28269 1
    endloop
  endfacet
  facet normal -0.130526 -0.991445 0
    outer loop
      vertex -1.95139 -7.28269 30
      vertex -1.95139 -7.28269 1
      vertex 0 -7.5396 1
    endloop
  endfacet
  facet normal -0.130526 -0.991445 0
    outer loop
      vertex 0 -7.5396 30
      vertex -1.95139 -7.28269 30
      vertex 0 -7.5396 1
    endloop
  endfacet
  facet normal 0.130526 -0.991445 0
    outer loop
      vertex 0 -7.5396 30
      vertex 0 -7.5396 1
      vertex 1.95139 -7.28269 1
    endloop
  endfacet
  facet normal 0.130526 -0.991445 0
    outer loop
      vertex 1.95139 -7.28269 30
      vertex 0 -7.5396 30
      vertex 1.95139 -7.28269 1
    endloop
  endfacet
  facet normal 0.382683 -0.92388 0
    outer loop
      vertex 1.95139 -7.28269 30
      vertex 1.95139 -7.28269 1
      vertex 3.7698 -6.52948 1
    endloop
  endfacet
  facet normal 0.382683 -0.92388 0
    outer loop
      vertex 3.7698 -6.52948 30
      vertex 1.95139 -7.28269 30
      vertex 3.7698 -6.52948 1
    endloop
  endfacet
  facet normal 0.608762 -0.793353 0
    outer loop
      vertex 3.7698 -6.52948 30
      vertex 3.7698 -6.52948 1
      vertex 5.3313 -5.3313 1
    endloop
  endfacet
  facet normal 0.608762 -0.793353 0
    outer loop
      vertex 5.3313 -5.3313 30
      vertex 3.7698 -6.52948 30
      vertex 5.3313 -5.3313 1
    endloop
  endfacet
  facet normal 0.793353 -0.608762 0
    outer loop
      vertex 5.3313 -5.3313 30
      vertex 5.3313 -5.3313 1
      vertex 6.52948 -3.7698 1
    endloop
  endfacet
  facet normal 0.793353 -0.608762 0
    outer loop
      vertex 6.52948 -3.7698 30
      vertex 5.3313 -5.3313 30
      vertex 6.52948 -3.7698 1
    endloop
  endfacet
  facet normal 0.92388 -0.382683 0
    outer loop
      vertex 6.52948 -3.7698 30
      vertex 6.52948 -3.7698 1
      vertex 7.28269 -1.95139 1
    endloop
  endfacet
  facet normal 0.92388 -0.382683 0
    outer loop
      vertex 7.28269 -1.95139 30
      vertex 6.52948 -3.7698 30
      vertex 7.28269 -1.95139 1
    endloop
  endfacet
  facet normal 0.991445 -0.130526 0
    outer loop
      vertex 7.28269 -1.95139 30
      vertex 7.28269 -1.95139 1
      vertex 7.5396 0 1
    endloop
  endfacet
  facet normal 0.991445 -0.130526 0
    outer loop
      vertex 7.5396 0 30
      vertex 7.28269 -1.95139 30
      vertex 7.5396 0 1
    endloop
  endfacet
  facet normal 0.991445 0.130526 0
    outer loop
      vertex 7.5396 0 1
      vertex 7.28269 1.95139 1
      vertex 7.28269 1.95139 30
    endloop
  endfacet
  facet normal 0.991445 0.130526 -0
    outer loop
      vertex 7.5396 0 30
      vertex 7.5396 0 1
      vertex 7.28269 1.95139 30
    endloop
  endfacet
  facet normal 0.92388 0.382683 0
    outer loop
      vertex 7.28269 1.95139 1
      vertex 6.52948 3.7698 1
      vertex 6.52948 3.7698 30
    endloop
  endfacet
  facet normal 0.92388 0.382683 -0
    outer loop
      vertex 7.28269 1.95139 30
      vertex 7.28269 1.95139 1
      vertex 6.52948 3.7698 30
    endloop
  endfacet
  facet normal 0.793353 0.608762 0
    outer loop
      vertex 6.52948 3.7698 1
      vertex 5.3313 5.3313 1
      vertex 5.3313 5.3313 30
    endloop
  endfacet
  facet normal 0.793353 0.608762 -0
    outer loop
      vertex 6.52948 3.7698 30
      vertex 6.52948 3.7698 1
      vertex 5.3313 5.3313 30
    endloop
  endfacet
  facet normal 0.608762 0.793353 0
    outer loop
      vertex 3.7698 6.52948 1
      vertex 3.7698 6.52948 30
      vertex 5.3313 5.3313 1
    endloop
  endfacet
  facet normal 0.608762 0.793353 0
    outer loop
      vertex 5.3313 5.3313 1
      vertex 3.7698 6.52948 30
      vertex 5.3313 5.3313 30
    endloop
  endfacet
  facet normal 0.382683 0.92388 0
    outer loop
      vertex 1.95139 7.28269 1
      vertex 1.95139 7.28269 30
      vertex 3.7698 6.52948 1
    endloop
  endfacet
  facet normal 0.382683 0.92388 0
    outer loop
      vertex 3.7698 6.52948 1
      vertex 1.95139 7.28269 30
      vertex 3.7698 6.52948 30
    endloop
  endfacet
  facet normal 0.130526 0.991445 0
    outer loop
      vertex 0 7.5396 1
      vertex 0 7.5396 30
      vertex 1.95139 7.28269 1
    endloop
  endfacet
  facet normal 0.130526 0.991445 0
    outer loop
      vertex 1.95139 7.28269 1
      vertex 0 7.5396 30
      vertex 1.95139 7.28269 30
    endloop
  endfacet
  facet normal -0.130526 0.991445 0
    outer loop
      vertex -1.95139 7.28269 1
      vertex -1.95139 7.28269 30
      vertex 0 7.5396 1
    endloop
  endfacet
  facet normal -0.130526 0.991445 0
    outer loop
      vertex 0 7.5396 1
      vertex -1.95139 7.28269 30
      vertex 0 7.5396 30
    endloop
  endfacet
  facet normal -0.382683 0.92388 0
    outer loop
      vertex -3.7698 6.52948 1
      vertex -3.7698 6.52948 30
      vertex -1.95139 7.28269 1
    endloop
  endfacet
  facet normal -0.382683 0.92388 0
    outer loop
      vertex -1.95139 7.28269 1
      vertex -3.7698 6.52948 30
      vertex -1.95139 7.28269 30
    endloop
  endfacet
  facet normal -0.608762 0.793353 0
    outer loop
      vertex -5.3313 5.3313 1
      vertex -5.3313 5.3313 30
      vertex -3.7698 6.52948 1
    endloop
  endfacet
  facet normal -0.608762 0.793353 0
    outer loop
      vertex -3.7698 6.52948 1
      vertex -5.3313 5.3313 30
      vertex -3.7698 6.52948 30
    endloop
  endfacet
  facet normal -0.793353 0.608762 0
    outer loop
      vertex -6.52948 3.7698 1
      vertex -6.52948 3.7698 30
      vertex -5.3313 5.3313 1
    endloop
  endfacet
  facet normal -0.793353 0.608762 0
    outer loop
      vertex -5.3313 5.3313 1
      vertex -6.52948 3.7698 30
      vertex -5.3313 5.3313 30
    endloop
  endfacet
  facet normal -0.92388 0.382683 0
    outer loop
      vertex -7.28269 1.95139 1
      vertex -7.28269 1.95139 30
      vertex -6.52948 3.7698 1
    endloop
  endfacet
  facet normal -0.92388 0.382683 0
    outer loop
      vertex -6.52948 3.7698 1
      vertex -7.28269 1.95139 30
      vertex -6.52948 3.7698 30
    endloop
  endfacet
  facet normal -0.991445 0.130526 0
    outer loop
      vertex -7.5396 0 1
      vertex -7.5396 0 30
      vertex -7.28269 1.95139 1
    endloop
  endfacet
  facet normal -0.991445 0.130526 0
    outer loop
      vertex -7.28269 1.95139 1
      vertex -7.5396 0 30
      vertex -7.28269 1.95139 30
    endloop
  endfacet
  facet normal 0 0 1
    outer loop
      vertex -7.28269 1.95139 30
      vertex -7.5396 0 30
      vertex -7.28269 -1.95139 30
    endloop
  endfacet
  facet normal 0 0 1
    outer loop
      vertex -5.3313 -5.3313 30
      vertex -7.28269 1.95139 30
      vertex -6.52948 -3.7698 30
    endloop
  endfacet
  facet normal 0 0 1
    outer loop
      vertex -6.52948 -3.7698 30
      vertex -7.28269 1.95139 30
      vertex -7.28269 -1.95139 30
    endloop
  endfacet
  facet normal 0 0 1
    outer loop
      vertex -3.7698 -6.52948 30
      vertex -7.28269 1.95139 30
      vertex -5.3313 -5.3313 30
    endloop
  endfacet
  facet normal 0 0 1
    outer loop
      vertex -1.95139 -7.28269 30
      vertex -7.28269 1.95139 30
      vertex -3.7698 -6.52948 30
    endloop
  endfacet
  facet normal -0 -0 1
    outer loop
      vertex -4.63095 -1.9182 30
      vertex -7.28269 1.95139 30
      vertex -1.95139 -7.28269 30
    endloop
  endfacet
  facet normal 0 0 1
    outer loop
      vertex -4.63095 1.9182 30
      vertex -3.54437 3.54437 30
      vertex -7.28269 1.95139 30
    endloop
  endfacet
  facet normal 0 -0 1
    outer loop
      vertex 1.9182 -4.63095 30
      vertex 0 -5.0125 30
      vertex 3.7698 -6.52948 30
    endloop
  endfacet
  facet normal 0 0 1
    outer loop
      vertex 3.54437 3.54437 30
      vertex 4.63095 1.9182 30
      vertex 7.28269 1.95139 30
    endloop
  endfacet
  facet normal 0 -0 1
    outer loop
      vertex 0 7.5396 30
      vertex -7.28269 1.95139 30
      vertex 1.95139 7.28269 30
    endloop
  endfacet
  facet normal 0 -0 1
    outer loop
      vertex -1.95139 7.28269 30
      vertex -7.28269 1.95139 30
      vertex 0 7.5396 30
    endloop
  endfacet
  facet normal 0 -0 1
    outer loop
      vertex -3.7698 6.52948 30
      vertex -7.28269 1.95139 30
      vertex -1.95139 7.28269 30
    endloop
  endfacet
  facet normal 0 -0 1
    outer loop
      vertex -5.3313 5.3313 30
      vertex -7.28269 1.95139 30
      vertex -3.7698 6.52948 30
    endloop
  endfacet
  facet normal 0 -0 1
    outer loop
      vertex -6.52948 3.7698 30
      vertex -7.28269 1.95139 30
      vertex -5.3313 5.3313 30
    endloop
  endfacet
  facet normal -0 -0 1
    outer loop
      vertex -3.54437 -3.54437 30
      vertex -4.63095 -1.9182 30
      vertex -1.95139 -7.28269 30
    endloop
  endfacet
  facet normal 0 -0 1
    outer loop
      vertex 3.54437 -3.54437 30
      vertex 1.9182 -4.63095 30
      vertex 5.3313 -5.3313 30
    endloop
  endfacet
  facet normal 0 -0 1
    outer loop
      vertex 5.0125 0 30
      vertex 4.63095 -1.9182 30
      vertex 7.28269 -1.95139 30
    endloop
  endfacet
  facet normal 0 0 1
    outer loop
      vertex 1.95139 7.28269 30
      vertex -7.28269 1.95139 30
      vertex -3.54437 3.54437 30
    endloop
  endfacet
  facet normal 0 -0 1
    outer loop
      vertex 1.95139 7.28269 30
      vertex -1.9182 4.63095 30
      vertex 3.7698 6.52948 30
    endloop
  endfacet
  facet normal 0 0 1
    outer loop
      vertex 1.95139 7.28269 30
      vertex -3.54437 3.54437 30
      vertex -1.9182 4.63095 30
    endloop
  endfacet
  facet normal 0 0 1
    outer loop
      vertex -1.9182 4.63095 30
      vertex 0 5.0125 30
      vertex 3.7698 6.52948 30
    endloop
  endfacet
  facet normal 0 -0 1
    outer loop
      vertex 3.7698 6.52948 30
      vertex 1.9182 4.63095 30
      vertex 5.3313 5.3313 30
    endloop
  endfacet
  facet normal 0 0 1
    outer loop
      vertex 0 5.0125 30
      vertex 1.9182 4.63095 30
      vertex 3.7698 6.52948 30
    endloop
  endfacet
  facet normal 0 -0 1
    outer loop
      vertex 5.3313 5.3313 30
      vertex 3.54437 3.54437 30
      vertex 6.52948 3.7698 30
    endloop
  endfacet
  facet normal 0 -0 1
    outer loop
      vertex 7.28269 1.95139 30
      vertex 4.63095 1.9182 30
      vertex 7.5396 0 30
    endloop
  endfacet
  facet normal 0 0 1
    outer loop
      vertex 7.5396 0 30
      vertex 5.0125 0 30
      vertex 7.28269 -1.95139 30
    endloop
  endfacet
  facet normal 0 0 1
    outer loop
      vertex 1.9182 4.63095 30
      vertex 3.54437 3.54437 30
      vertex 5.3313 5.3313 30
    endloop
  endfacet
  facet normal -0 0 1
    outer loop
      vertex 7.28269 -1.95139 30
      vertex 4.63095 -1.9182 30
      vertex 6.52948 -3.7698 30
    endloop
  endfacet
  facet normal 0 0 1
    outer loop
      vertex 3.54437 3.54437 30
      vertex 7.28269 1.95139 30
      vertex 6.52948 3.7698 30
    endloop
  endfacet
  facet normal -0 0 1
    outer loop
      vertex 6.52948 -3.7698 30
      vertex 3.54437 -3.54437 30
      vertex 5.3313 -5.3313 30
    endloop
  endfacet
  facet normal 0 0 1
    outer loop
      vertex 4.63095 1.9182 30
      vertex 5.0125 0 30
      vertex 7.5396 0 30
    endloop
  endfacet
  facet normal -0 0 1
    outer loop
      vertex 5.3313 -5.3313 30
      vertex 1.9182 -4.63095 30
      vertex 3.7698 -6.52948 30
    endloop
  endfacet
  facet normal -0 0 1
    outer loop
      vertex 3.7698 -6.52948 30
      vertex 0 -5.0125 30
      vertex 1.95139 -7.28269 30
    endloop
  endfacet
  facet normal -0 0 1
    outer loop
      vertex 1.95139 -7.28269 30
      vertex -1.9182 -4.63095 30
      vertex 0 -7.5396 30
    endloop
  endfacet
  facet normal 0 -0 1
    outer loop
      vertex 4.63095 -1.9182 30
      vertex 3.54437 -3.54437 30
      vertex 6.52948 -3.7698 30
    endloop
  endfacet
  facet normal 0 0 1
    outer loop
      vertex 0 -7.5396 30
      vertex -3.54437 -3.54437 30
      vertex -1.95139 -7.28269 30
    endloop
  endfacet
  facet normal 0 0 1
    outer loop
      vertex -4.63095 -1.9182 30
      vertex -5.0125 0 30
      vertex -7.28269 1.95139 30
    endloop
  endfacet
  facet normal -0 -0 1
    outer loop
      vertex -1.9182 -4.63095 30
      vertex -3.54437 -3.54437 30
      vertex 0 -7.5396 30
    endloop
  endfacet
  facet normal -0 -0 1
    outer loop
      vertex 0 -5.0125 30
      vertex -1.9182 -4.63095 30
      vertex 1.95139 -7.28269 30
    endloop
  endfacet
  facet normal 0 0 1
    outer loop
      vertex -5.0125 0 30
      vertex -4.63095 1.9182 30
      vertex -7.28269 1.95139 30
    endloop
  endfacet
  facet normal 0.980785 0.19509 0
    outer loop
      vertex -5.0125 0 30
      vertex -4.63095 -1.9182 30
      vertex -4.63095 -1.9182 1
    endloop
  endfacet
  facet normal 0.980785 0.19509 0
    outer loop
      vertex -5.0125 0 1
      vertex -5.0125 0 30
      vertex -4.63095 -1.9182 1
    endloop
  endfacet
  facet normal 0.83147 0.55557 0
    outer loop
      vertex -4.63095 -1.9182 30
      vertex -3.54437 -3.54437 30
      vertex -3.54437 -3.54437 1
    endloop
  endfacet
  facet normal 0.83147 0.55557 0
    outer loop
      vertex -4.63095 -1.9182 1
      vertex -4.63095 -1.9182 30
      vertex -3.54437 -3.54437 1
    endloop
  endfacet
  facet normal 0.55557 0.83147 -0
    outer loop
      vertex -1.9182 -4.63095 30
      vertex -1.9182 -4.63095 1
      vertex -3.54437 -3.54437 30
    endloop
  endfacet
  facet normal 0.55557 0.83147 -0
    outer loop
      vertex -3.54437 -3.54437 30
      vertex -1.9182 -4.63095 1
      vertex -3.54437 -3.54437 1
    endloop
  endfacet
  facet normal 0.19509 0.980785 -0
    outer loop
      vertex 0 -5.0125 30
      vertex 0 -5.0125 1
      vertex -1.9182 -4.63095 30
    endloop
  endfacet
  facet normal 0.19509 0.980785 -0
    outer loop
      vertex -1.9182 -4.63095 30
      vertex 0 -5.0125 1
      vertex -1.9182 -4.63095 1
    endloop
  endfacet
  facet normal -0.19509 0.980785 0
    outer loop
      vertex 1.9182 -4.63095 30
      vertex 1.9182 -4.63095 1
      vertex 0 -5.0125 30
    endloop
  endfacet
  facet normal -0.19509 0.980785 0
    outer loop
      vertex 0 -5.0125 30
      vertex 1.9182 -4.63095 1
      vertex 0 -5.0125 1
    endloop
  endfacet
  facet normal -0.55557 0.83147 0
    outer loop
      vertex 3.54437 -3.54437 30
      vertex 3.54437 -3.54437 1
      vertex 1.9182 -4.63095 30
    endloop
  endfacet
  facet normal -0.55557 0.83147 0
    outer loop
      vertex 1.9182 -4.63095 30
      vertex 3.54437 -3.54437 1
      vertex 1.9182 -4.63095 1
    endloop
  endfacet
  facet normal -0.83147 0.55557 0
    outer loop
      vertex 4.63095 -1.9182 30
      vertex 4.63095 -1.9182 1
      vertex 3.54437 -3.54437 30
    endloop
  endfacet
  facet normal -0.83147 0.55557 0
    outer loop
      vertex 3.54437 -3.54437 30
      vertex 4.63095 -1.9182 1
      vertex 3.54437 -3.54437 1
    endloop
  endfacet
  facet normal -0.980785 0.19509 0
    outer loop
      vertex 5.0125 0 30
      vertex 5.0125 0 1
      vertex 4.63095 -1.9182 30
    endloop
  endfacet
  facet normal -0.980785 0.19509 0
    outer loop
      vertex 4.63095 -1.9182 30
      vertex 5.0125 0 1
      vertex 4.63095 -1.9182 1
    endloop
  endfacet
  facet normal -0.980785 -0.19509 0
    outer loop
      vertex 5.0125 0 30
      vertex 4.63095 1.9182 30
      vertex 5.0125 0 1
    endloop
  endfacet
  facet normal -0.980785 -0.19509 0
    outer loop
      vertex 5.0125 0 1
      vertex 4.63095 1.9182 30
      vertex 4.63095 1.9182 1
    endloop
  endfacet
  facet normal -0.83147 -0.55557 0
    outer loop
      vertex 4.63095 1.9182 30
      vertex 3.54437 3.54437 30
      vertex 4.63095 1.9182 1
    endloop
  endfacet
  facet normal -0.83147 -0.55557 0
    outer loop
      vertex 4.63095 1.9182 1
      vertex 3.54437 3.54437 30
      vertex 3.54437 3.54437 1
    endloop
  endfacet
  facet normal -0.55557 -0.83147 -0
    outer loop
      vertex 3.54437 3.54437 1
      vertex 3.54437 3.54437 30
      vertex 1.9182 4.63095 30
    endloop
  endfacet
  facet normal -0.55557 -0.83147 -0
    outer loop
      vertex 1.9182 4.63095 1
      vertex 3.54437 3.54437 1
      vertex 1.9182 4.63095 30
    endloop
  endfacet
  facet normal -0.19509 -0.980785 -0
    outer loop
      vertex 1.9182 4.63095 1
      vertex 1.9182 4.63095 30
      vertex 0 5.0125 30
    endloop
  endfacet
  facet normal -0.19509 -0.980785 -0
    outer loop
      vertex 0 5.0125 1
      vertex 1.9182 4.63095 1
      vertex 0 5.0125 30
    endloop
  endfacet
  facet normal 0.19509 -0.980785 0
    outer loop
      vertex 0 5.0125 1
      vertex 0 5.0125 30
      vertex -1.9182 4.63095 30
    endloop
  endfacet
  facet normal 0.19509 -0.980785 0
    outer loop
      vertex -1.9182 4.63095 1
      vertex 0 5.0125 1
      vertex -1.9182 4.63095 30
    endloop
  endfacet
  facet normal 0.55557 -0.83147 0
    outer loop
      vertex -1.9182 4.63095 1
      vertex -1.9182 4.63095 30
      vertex -3.54437 3.54437 30
    endloop
  endfacet
  facet normal 0.55557 -0.83147 0
    outer loop
      vertex -3.54437 3.54437 1
      vertex -1.9182 4.63095 1
      vertex -3.54437 3.54437 30
    endloop
  endfacet
  facet normal 0.83147 -0.55557 0
    outer loop
      vertex -3.54437 3.54437 1
      vertex -3.54437 3.54437 30
      vertex -4.63095 1.9182 30
    endloop
  endfacet
  facet normal 0.83147 -0.55557 0
    outer loop
      vertex -4.63095 1.9182 1
      vertex -3.54437 3.54437 1
      vertex -4.63095 1.9182 30
    endloop
  endfacet
  facet normal 0.980785 -0.19509 0
    outer loop
      vertex -4.63095 1.9182 1
      vertex -4.63095 1.9182 30
      vertex -5.0125 0 30
    endloop
  endfacet
  facet normal 0.980785 -0.19509 0
    outer loop
      vertex -5.0125 0 1
      vertex -4.63095 1.9182 1
      vertex -5.0125 0 30
    endloop
  endfacet
  facet normal 0 0 1
    outer loop
      vertex -4.63095 1.9182 1
      vertex -5.0125 0 1
      vertex -4.63095 -1.9182 1
    endloop
  endfacet
  facet normal 0 0 1
    outer loop
      vertex -1.9182 -4.63095 1
      vertex -4.63095 1.9182 1
      vertex -3.54437 -3.54437 1
    endloop
  endfacet
  facet normal 0 0 1
    outer loop
      vertex -3.54437 -3.54437 1
      vertex -4.63095 1.9182 1
      vertex -4.63095 -1.9182 1
    endloop
  endfacet
  facet normal 0 0 1
    outer loop
      vertex 0 -5.0125 1
      vertex -4.63095 1.9182 1
      vertex -1.9182 -4.63095 1
    endloop
  endfacet
  facet normal -0 0 1
    outer loop
      vertex 1.9182 -4.63095 1
      vertex -4.63095 1.9182 1
      vertex 0 -5.0125 1
    endloop
  endfacet
  facet normal -0 0 1
    outer loop
      vertex 3.54437 -3.54437 1
      vertex -4.63095 1.9182 1
      vertex 1.9182 -4.63095 1
    endloop
  endfacet
  facet normal -0 0 1
    outer loop
      vertex 4.63095 -1.9182 1
      vertex -4.63095 1.9182 1
      vertex 3.54437 -3.54437 1
    endloop
  endfacet
  facet normal -0 0 1
    outer loop
      vertex 5.0125 0 1
      vertex -4.63095 1.9182 1
      vertex 4.63095 -1.9182 1
    endloop
  endfacet
  facet normal 0 -0 1
    outer loop
      vertex 4.63095 1.9182 1
      vertex -4.63095 1.9182 1
      vertex 5.0125 0 1
    endloop
  endfacet
  facet normal 0 -0 1
    outer loop
      vertex 3.54437 3.54437 1
      vertex -4.63095 1.9182 1
      vertex 4.63095 1.9182 1
    endloop
  endfacet
  facet normal 0 -0 1
    outer loop
      vertex 1.9182 4.63095 1
      vertex -4.63095 1.9182 1
      vertex 3.54437 3.54437 1
    endloop
  endfacet
  facet normal 0 -0 1
    outer loop
      vertex 0 5.0125 1
      vertex -4.63095 1.9182 1
      vertex 1.9182 4.63095 1
    endloop
  endfacet
  facet normal 0 -0 1
    outer loop
      vertex -1.9182 4.63095 1
      vertex -4.63095 1.9182 1
      vertex 0 5.0125 1
    endloop
  endfacet
  facet normal 0 -0 1
    outer loop
      vertex -3.54437 3.54437 1
      vertex -4.63095 1.9182 1
      vertex -1.9182 4.63095 1
    endloop
  endfacet
endsolid OpenSCAD_Model
